<?xml version="1.0" standalone="no"?>
<!DOCTYPE svg PUBLIC "-//W3C//DTD SVG 20010904//EN"
 "http://www.w3.org/TR/2001/REC-SVG-20010904/DTD/svg10.dtd">
<svg version="1.0" xmlns="http://www.w3.org/2000/svg"
 width="2100.000000pt" height="2100.000000pt" viewBox="0 0 2100.000000 2100.000000"
 preserveAspectRatio="xMidYMid meet">

<g transform="translate(0.000000,2100.000000) scale(0.100000,-0.100000)"
fill="#d6ae29" stroke="none">
<path fill="#d6ae29" d="M14905 20089 c-165 -88 -474 -328 -625 -486 -53 -55 -123 -137 -157
-184 -133 -185 -260 -442 -301 -609 -18 -72 -52 -316 -52 -372 0 -11 -12 -18
-42 -23 -115 -18 -234 -109 -284 -218 -25 -54 -29 -74 -29 -152 0 -77 4 -99
28 -150 16 -33 42 -74 59 -92 l30 -31 -57 -82 c-302 -429 -738 -889 -1025
-1082 l-105 -71 -2905 -23 c-1598 -13 -3019 -23 -3158 -23 l-253 -1 58 49 c32
26 93 84 135 129 92 96 136 127 514 355 364 219 590 361 853 536 113 76 211
140 217 144 6 3 30 -7 54 -23 61 -41 153 -63 236 -58 58 3 77 9 116 36 58 40
105 107 128 181 17 54 19 56 61 64 272 50 773 348 964 573 198 234 251 415
140 484 -40 25 -85 25 -198 0 -322 -71 -775 -285 -950 -449 -54 -51 -126 -154
-157 -227 -12 -27 -22 -50 -24 -51 -1 -2 -29 6 -62 18 -78 27 -190 36 -249 19
-25 -7 -65 -30 -89 -51 -82 -73 -111 -179 -82 -304 16 -68 16 -70 -4 -85 -120
-90 -1128 -725 -1137 -716 -1 1 37 81 85 178 l87 177 67 0 c134 2 253 77 309
196 48 100 34 221 -33 292 -12 13 -20 24 -17 26 2 2 34 20 70 40 265 146 581
497 822 912 155 268 256 606 228 761 -21 109 -66 155 -160 162 -59 4 -60 4
-149 -57 -95 -66 -390 -309 -507 -420 -255 -240 -405 -465 -476 -711 -43 -147
-76 -471 -56 -544 8 -27 7 -28 -18 -22 -14 4 -54 2 -87 -4 -139 -26 -225 -102
-263 -235 -32 -108 -5 -199 83 -283 l34 -33 -22 -53 c-32 -79 -182 -356 -242
-444 -166 -249 -337 -415 -543 -528 l-70 -39 -575 -3 c-348 -2 -585 -7 -600
-13 -58 -22 -55 77 -60 -1549 -5 -1428 -6 -1497 -24 -1545 -124 -330 -475
-1113 -709 -1581 l-105 -210 -79 -60 c-116 -90 -154 -114 -438 -286 l-260
-157 -40 39 c-98 95 -252 123 -367 67 -70 -34 -172 -142 -219 -231 -27 -51
-34 -75 -37 -142 l-4 -80 -58 4 c-74 5 -193 -18 -345 -69 -283 -94 -549 -291
-803 -593 -100 -119 -125 -165 -126 -228 0 -38 6 -55 30 -85 49 -61 103 -83
205 -83 161 0 302 42 544 160 177 86 313 172 400 251 93 86 242 309 275 411
10 34 42 68 62 68 5 0 8 -10 8 -23 0 -13 12 -35 28 -49 108 -101 346 -30 454
134 52 79 70 137 72 224 l1 77 195 114 c107 63 222 131 255 153 32 21 61 38
62 36 5 -5 -223 -419 -319 -579 -48 -81 -154 -247 -233 -369 l-146 -221 -73
-2 c-57 -1 -85 -7 -129 -28 -64 -32 -130 -94 -159 -151 -32 -62 -36 -174 -9
-253 11 -34 19 -68 16 -75 -3 -7 -58 -51 -122 -98 -381 -278 -584 -486 -737
-756 -51 -89 -158 -340 -203 -474 -44 -133 -29 -251 38 -285 36 -19 105 -19
158 0 122 43 441 297 590 470 201 233 346 491 442 789 27 82 49 156 49 163 0
9 6 10 27 2 85 -32 245 84 314 228 25 53 34 85 37 144 5 90 -7 132 -54 195
-28 36 -32 48 -24 64 6 10 70 110 143 222 158 241 280 439 368 601 59 109 65
116 71 90 4 -15 35 -161 69 -323 33 -162 77 -367 96 -455 85 -389 182 -611
302 -686 136 -87 238 29 286 326 40 241 39 716 0 985 -37 249 -112 485 -222
703 -61 121 -110 188 -143 199 -12 4 12 59 103 246 131 270 297 630 408 889
40 95 75 171 76 169 1 -1 -1 -1809 -4 -4018 l-6 -4016 -66 55 c-88 75 -139 97
-221 97 -112 0 -175 -54 -174 -149 0 -57 19 -99 76 -167 l39 -47 -43 -5 c-24
-2 -86 -9 -139 -15 -227 -25 -359 -110 -346 -223 15 -121 181 -182 428 -160
57 6 105 9 106 8 2 -1 -20 -20 -48 -41 -165 -126 -317 -319 -384 -489 -65
-166 -77 -375 -32 -548 52 -199 148 -357 421 -698 326 -406 478 -635 547 -823
38 -104 70 -153 114 -174 30 -14 42 -15 91 -4 150 34 225 222 225 566 1 392
-69 576 -364 961 -81 106 -179 298 -208 409 -11 44 -23 123 -26 175 l-5 95 40
-55 c73 -100 162 -142 308 -148 107 -4 178 9 257 50 21 10 41 18 42 16 2 -2
-4 -37 -15 -78 -35 -137 -53 -297 -47 -415 6 -135 20 -201 102 -492 82 -290
90 -342 86 -528 -2 -82 -4 -194 -5 -248 l-1 -99 33 -29 c55 -50 131 -31 212
53 121 126 250 519 282 861 15 156 5 252 -51 504 -61 272 -64 301 -58 552 6
252 -3 369 -39 481 -13 41 -24 78 -24 81 0 4 17 10 38 14 20 4 63 21 95 37
143 77 176 199 78 297 -47 47 -103 75 -206 102 -67 17 -111 21 -277 22 l-197
0 45 58 c116 151 124 281 22 336 -48 25 -150 23 -211 -4 -55 -26 -195 -161
-275 -267 l-52 -69 0 1757 c0 966 2 1756 5 1756 2 0 16 -21 29 -47 43 -86 159
-254 362 -523 110 -146 241 -332 293 -414 51 -81 181 -284 289 -450 108 -165
237 -367 288 -449 l92 -147 -49 -82 c-58 -96 -69 -131 -69 -219 0 -53 6 -77
30 -126 60 -119 176 -197 322 -217 l78 -10 0 -32 c0 -52 65 -245 120 -353 127
-254 374 -558 618 -762 103 -85 139 -99 196 -75 54 22 71 64 70 171 -2 231
-150 591 -372 905 -62 87 -208 237 -298 306 l-72 55 10 37 c6 20 8 75 6 122
-8 156 -77 249 -245 332 -66 33 -99 43 -149 46 l-63 4 -28 47 c-14 25 -91 145
-169 266 -204 316 -433 680 -429 683 1 2 63 -30 136 -71 133 -74 133 -74 145
-120 29 -114 104 -211 199 -257 66 -32 188 -39 269 -16 79 23 92 17 99 -47 13
-128 91 -268 231 -415 169 -177 366 -322 581 -428 235 -115 569 -207 762 -208
83 -1 95 1 115 22 53 53 13 165 -131 363 -170 233 -292 354 -551 551 -267 201
-578 355 -855 422 l-70 17 -34 64 c-85 165 -288 292 -426 266 -53 -10 -82 -26
-130 -72 l-40 -38 -147 82 c-349 194 -498 336 -736 695 -136 206 -222 402
-257 584 -8 42 -17 137 -20 210 -3 73 -2 1411 2 2972 l8 2839 94 -159 c51 -87
154 -262 229 -389 180 -306 262 -438 479 -764 l182 -275 -29 -44 c-99 -150
-39 -393 115 -466 50 -24 155 -35 230 -25 33 4 60 7 60 6 1 -1 12 -18 26 -37
22 -30 25 -42 20 -80 -19 -135 52 -378 167 -573 107 -181 278 -373 462 -519
187 -148 232 -170 295 -144 80 34 101 187 50 379 -105 402 -402 865 -695 1085
-41 31 -78 59 -83 62 -4 4 4 32 19 64 65 143 9 309 -133 393 -50 29 -152 63
-190 63 -36 0 -88 -27 -102 -54 -10 -17 -19 -21 -41 -18 -26 4 -52 39 -218
291 -240 364 -549 860 -615 987 -14 26 7 14 131 -77 81 -60 192 -144 247 -187
94 -73 101 -81 118 -134 24 -78 89 -172 152 -219 87 -65 222 -102 299 -81 54
15 100 -13 115 -71 18 -72 176 -293 291 -407 189 -188 613 -442 891 -534 141
-46 356 -91 400 -82 59 11 97 41 110 87 40 133 -136 494 -356 727 -301 319
-656 483 -1081 499 l-141 6 0 81 c1 71 -3 90 -30 146 -76 159 -242 249 -407
219 -77 -14 -132 -42 -178 -91 l-36 -40 -184 135 c-200 148 -368 281 -502 397
-73 64 -93 87 -126 154 l-40 78 0 564 c0 443 3 566 13 569 13 4 2642 25 3250
26 l369 0 95 -51 c52 -28 175 -101 272 -162 271 -171 383 -238 543 -321 80
-43 149 -85 153 -95 7 -20 11 -26 348 -533 142 -212 257 -391 257 -396 0 -5
-11 -20 -24 -32 -57 -54 -95 -207 -77 -307 13 -70 54 -140 100 -171 19 -13 66
-33 105 -44 82 -25 149 -22 220 10 45 19 46 19 56 1 5 -10 10 -59 10 -108 0
-115 21 -223 71 -370 124 -359 384 -762 601 -928 70 -54 172 -104 213 -104 53
0 117 40 145 90 22 40 25 56 24 140 -1 67 -9 124 -27 190 -68 259 -262 647
-427 854 -88 111 -286 275 -413 342 -37 20 -67 39 -65 42 61 113 75 219 40
289 -28 54 -92 109 -171 146 -55 26 -79 31 -142 32 l-76 1 -237 352 c-130 193
-236 354 -236 356 0 7 320 -170 688 -381 317 -180 501 -293 672 -410 l85 -58
5 -75 c7 -90 35 -154 90 -204 62 -56 170 -73 260 -41 41 14 42 14 48 -8 13
-52 100 -207 194 -349 202 -303 407 -461 754 -581 113 -40 286 -80 414 -98 99
-13 158 -2 196 36 86 87 -54 361 -326 637 -187 190 -494 361 -853 478 -105 35
-194 64 -196 66 -2 2 4 24 13 50 54 158 -43 290 -219 302 -61 4 -84 0 -178
-33 l-109 -36 -196 129 c-199 130 -412 257 -732 436 -96 54 -179 102 -184 107
-6 5 25 9 75 9 314 0 773 112 1119 273 67 32 80 42 114 91 30 45 35 118 10
154 -37 53 -194 104 -429 141 -526 81 -803 45 -1340 -176 -99 -41 -192 -86
-206 -100 l-27 -25 -153 83 c-172 92 -262 146 -464 275 l-138 89 719 7 c1008
10 6081 48 6411 48 l272 0 -69 -102 c-103 -153 -123 -231 -77 -298 90 -133
235 -94 382 102 l44 59 5 -33 c2 -18 10 -95 16 -170 34 -410 140 -620 301
-593 83 14 134 87 152 219 l11 82 78 -63 c88 -71 160 -110 263 -143 61 -20 90
-23 218 -22 168 1 275 18 405 64 263 93 463 238 801 584 248 254 412 407 529
496 140 107 189 182 162 249 -16 38 -58 63 -149 88 -208 58 -458 47 -699 -30
-173 -56 -265 -105 -457 -242 -171 -123 -229 -147 -406 -168 -77 -9 -130 -9
-226 0 -68 7 -131 15 -139 18 -11 4 1 15 38 34 62 34 107 82 139 147 18 36 23
65 23 127 1 93 -19 161 -69 235 -19 28 -28 50 -22 50 7 0 93 -11 192 -25 365
-52 640 -49 920 10 290 61 496 102 603 118 177 28 251 75 259 164 4 42 1 53
-25 85 -81 102 -269 207 -503 283 -267 85 -393 92 -734 40 -142 -22 -201 -26
-357 -25 -312 1 -446 -24 -637 -123 -272 -139 -400 -251 -485 -423 l-32 -65
-13 83 c-22 149 -71 342 -102 405 -85 175 -240 155 -305 -39 -26 -80 -15 -257
28 -424 l33 -131 -43 33 c-57 43 -102 57 -167 52 -64 -5 -120 -43 -141 -94
-41 -98 14 -243 145 -386 l53 -58 -278 0 c-154 0 -877 -5 -1609 -11 -731 -6
-1347 -9 -1368 -7 l-38 3 73 63 c40 35 145 135 233 221 121 119 171 161 205
174 76 29 696 340 870 437 206 116 413 245 597 373 l143 99 52 -25 c90 -42
126 -50 203 -45 138 9 271 96 326 213 16 33 29 71 29 85 0 60 7 66 98 89 307
78 675 326 905 611 225 279 307 500 209 566 -21 15 -45 19 -107 18 -97 -1
-170 -20 -400 -109 -512 -198 -762 -385 -890 -668 -34 -75 -43 -87 -60 -82
-11 3 -49 11 -84 17 -171 30 -368 -66 -434 -211 -32 -70 -29 -186 6 -270 15
-36 27 -66 27 -68 0 -5 -285 -191 -462 -301 -81 -50 -227 -135 -325 -188 -171
-93 -467 -244 -478 -244 -2 0 37 53 88 118 50 65 116 152 146 194 50 70 57 76
82 71 44 -8 158 16 226 48 79 38 147 104 181 177 23 50 26 69 26 153 l-1 95
73 38 c339 175 641 609 835 1204 102 313 100 630 -4 696 -47 30 -79 29 -142
-5z m43 -296 c-10 -228 -74 -456 -203 -718 -120 -244 -279 -468 -428 -599
-111 -98 -115 -94 -10 10 110 108 126 140 98 195 -17 32 -50 44 -95 35 l-30
-6 29 58 c16 31 56 121 90 199 60 138 61 143 47 176 -18 43 -65 63 -105 44
-29 -14 -29 -14 -133 -241 -72 -158 -73 -158 -85 -128 -14 35 -40 52 -78 52
-33 0 -31 7 39 155 146 305 395 577 755 824 57 39 106 71 109 71 3 0 2 -57 0
-127z m-6962 -282 c-35 -199 -124 -407 -271 -626 -84 -126 -229 -318 -265
-350 -19 -17 -20 -17 -20 6 0 30 -27 65 -58 76 -22 9 -22 9 18 63 22 30 59 72
80 93 46 43 52 79 20 120 -44 56 -109 39 -186 -47 -26 -28 -89 -114 -141 -192
-84 -127 -96 -141 -118 -136 -32 6 -31 15 5 123 110 329 322 570 865 987 l80
61 3 -44 c2 -25 -4 -85 -12 -134z m8442 -322 c-105 -185 -325 -431 -494 -551
-163 -116 -341 -206 -459 -232 l-30 -6 30 26 c134 118 250 234 262 261 12 29
11 37 -2 63 -18 35 -43 50 -82 50 -21 0 -46 -17 -98 -66 -120 -112 -205 -186
-205 -179 0 4 14 33 30 64 95 178 295 337 580 459 117 51 459 171 488 172 9 0
2 -21 -20 -61z m-7069 -421 c-107 -212 -402 -458 -720 -600 -100 -44 -277
-103 -286 -94 -3 3 247 169 339 225 48 29 88 77 88 105 0 31 -34 72 -66 80
-31 8 -64 -7 -188 -88 -94 -61 -97 -48 -7 29 129 110 296 191 631 306 124 43
226 78 228 78 1 1 -7 -18 -19 -41z m5725 -371 l49 -23 -44 -36 c-24 -20 -98
-75 -163 -123 l-120 -86 -15 28 c-21 40 -19 122 4 162 53 91 185 126 289 78z
m-1292 -164 c10 -9 18 -21 18 -26 0 -15 -173 -287 -183 -287 -13 0 -47 82 -47
115 0 82 51 163 125 196 50 23 64 23 87 2z m1433 -34 c4 -6 0 -30 -10 -55 -29
-77 -118 -134 -206 -134 -72 0 -66 14 37 88 55 38 110 79 124 90 28 24 46 27
55 11z m-7174 -106 c8 -8 -13 -28 -80 -72 -122 -82 -121 -82 -121 -31 0 47 13
77 44 103 16 14 35 17 83 14 35 -1 68 -8 74 -14z m5928 -46 c2 -64 -47 -130
-124 -166 -25 -12 -47 -21 -50 -21 -2 0 19 37 49 83 29 45 65 102 81 127 25
39 29 42 36 25 4 -11 8 -33 8 -48z m-5799 -138 c0 -92 -82 -140 -178 -105
l-34 12 99 66 c54 36 101 64 106 61 4 -2 7 -18 7 -34z m-1471 -80 c-28 -57
-53 -106 -55 -108 -10 -11 -44 36 -44 61 0 32 30 97 54 117 17 14 89 41 94 36
2 -2 -20 -49 -49 -106z m237 6 c25 -38 13 -99 -27 -141 -30 -31 -94 -62 -105
-51 -7 6 98 217 108 217 4 0 15 -11 24 -25z m11589 -244 c103 -25 162 -45 260
-88 79 -34 238 -124 231 -130 -5 -5 -630 -131 -756 -153 -169 -28 -362 -43
-470 -36 -52 3 -165 17 -250 31 -235 39 -335 47 -435 36 -102 -12 -135 -33
-135 -86 0 -35 24 -72 115 -175 73 -83 95 -127 95 -187 0 -105 -69 -153 -252
-177 -62 -9 -128 -20 -146 -27 -18 -6 -48 -8 -68 -5 l-35 7 66 72 c73 79 105
132 105 172 0 38 -50 85 -89 85 l-31 0 20 41 c12 22 42 68 67 102 53 73 83
129 83 155 0 30 -37 70 -68 74 -24 3 -17 10 68 67 110 74 209 121 329 159 83
25 96 26 336 27 217 2 271 5 410 28 88 14 174 28 190 31 65 10 281 -4 360 -23z
m-2281 -265 c24 -107 61 -374 53 -382 -6 -6 -75 249 -92 340 -8 43 -15 112
-14 154 l0 77 14 -38 c8 -20 25 -88 39 -151z m-290 -426 c24 -16 61 -51 83
-77 46 -55 153 -216 148 -222 -2 -2 -32 17 -67 42 -72 52 -145 126 -176 177
-20 35 -45 110 -35 110 2 0 24 -13 47 -30z m2934 -131 c104 -11 126 -21 93
-38 -56 -30 -224 -186 -516 -478 -396 -395 -528 -498 -750 -584 -191 -74 -434
-95 -575 -50 l-75 24 37 9 c41 11 64 32 73 68 9 36 -26 84 -105 145 -79 61
-150 129 -150 143 0 6 30 -7 66 -28 75 -43 151 -64 186 -51 54 21 79 81 54
131 -13 27 -13 31 -1 26 48 -18 181 -37 220 -31 79 11 121 94 79 154 -9 13
-36 35 -60 50 l-43 28 111 12 c192 21 301 68 525 229 54 38 123 83 153 100
126 70 304 125 458 141 112 12 114 12 220 0z m-2668 -380 c0 -32 -173 -279
-186 -266 -6 6 168 276 179 277 4 0 7 -5 7 -11z m286 -295 c26 -62 50 -136 59
-189 16 -95 20 -331 6 -354 -12 -19 -64 146 -85 269 -25 155 -47 439 -29 390
3 -8 25 -61 49 -116z m-5801 -45 c120 -10 330 -47 415 -73 l45 -13 -40 -20
c-79 -40 -313 -122 -445 -156 -202 -52 -188 -51 -183 -23 11 54 -47 93 -168
115 l-66 13 29 28 c32 32 35 55 12 88 -9 13 -13 26 -10 30 19 19 251 25 411
11z m773 -1311 c16 -16 15 -80 0 -100 -12 -15 -21 -11 -86 36 l-72 53 32 11
c46 14 112 14 126 0z m-1180 -124 c22 -25 32 -94 13 -94 -7 0 -76 91 -104 137
-14 24 65 -14 91 -43z m-189 -112 c59 -84 70 -106 61 -118 -25 -29 -118 -8
-163 37 -27 28 -29 33 -23 81 9 63 33 125 45 112 4 -5 41 -55 80 -112z m-4263
-153 c75 -36 125 -143 103 -222 -5 -20 -13 -38 -18 -41 -9 -6 -41 15 -198 127
-62 44 -113 85 -113 91 1 20 26 45 61 61 41 18 106 12 165 -16z m6290 -150
c307 -150 566 -386 688 -626 l26 -53 -25 0 c-43 0 -257 49 -345 78 -314 106
-542 288 -725 576 -20 32 -31 55 -24 50 37 -22 279 -191 319 -222 25 -20 66
-55 92 -79 36 -33 55 -43 80 -43 69 0 102 56 74 123 -11 28 -49 61 -158 143
-79 58 -147 110 -153 116 -16 15 41 -9 151 -63z m-1325 -363 c145 -192 311
-528 359 -728 20 -85 27 -208 11 -208 -20 0 -140 97 -211 170 -105 108 -196
240 -284 410 -67 132 -143 319 -160 395 -8 36 40 -44 146 -241 91 -171 136
-205 201 -154 41 32 44 72 9 128 -16 26 -53 92 -82 147 -29 55 -73 133 -97
173 -24 41 -43 77 -43 80 1 11 87 -87 151 -172z m-4064 -28 c335 -139 637
-453 757 -785 30 -87 36 -84 -109 -49 -236 58 -444 156 -740 352 -147 97 -263
193 -233 194 9 0 30 12 47 26 l31 26 125 -51 c170 -70 288 -111 320 -111 37 0
85 50 85 89 0 41 -26 65 -91 86 -74 24 -261 97 -334 130 l-60 26 33 14 c34 15
43 29 46 70 1 31 13 29 123 -17z m-738 -651 c60 -30 91 -77 91 -134 0 -49 -23
-103 -44 -103 -8 0 -21 -2 -28 -5 -9 -4 -44 37 -101 119 -103 146 -105 162
-19 153 30 -3 76 -17 101 -30z m-214 -224 c41 -58 73 -108 71 -111 -10 -10
-88 11 -112 31 -32 25 -54 74 -54 121 0 33 8 66 16 66 2 0 37 -48 79 -107z
m607 -477 c166 -187 290 -389 373 -606 35 -93 85 -278 85 -317 0 -23 -4 -22
-62 29 -202 172 -359 346 -455 504 -48 78 -119 241 -110 250 2 2 27 -31 57
-74 64 -93 74 -102 117 -102 44 0 83 38 83 80 0 33 -23 70 -173 279 l-88 123
50 -42 c28 -24 83 -80 123 -124z m-3779 -1419 c18 -8 38 -21 45 -30 12 -14 7
-21 -45 -53 -32 -20 -106 -68 -164 -105 -58 -38 -109 -69 -112 -69 -15 0 -6
63 14 102 29 57 119 145 160 156 48 14 65 14 102 -1z m1442 -367 c22 -145 31
-476 16 -636 -12 -122 -52 -358 -70 -407 -8 -20 -10 -19 -30 21 -47 92 -113
269 -147 390 -26 96 -104 445 -104 467 0 1 11 6 25 9 29 7 52 47 61 106 6 37
9 41 28 35 57 -18 72 -17 99 11 25 25 67 133 67 174 0 10 3 27 7 37 8 20 21
-37 48 -207z m-1341 98 c-29 -59 -64 -98 -107 -120 -45 -22 -111 -28 -141 -11
-15 8 4 24 121 100 141 92 161 97 127 31z m-719 -224 c-11 -9 -96 -61 -190
-116 -93 -55 -180 -111 -192 -125 -47 -50 -11 -133 57 -133 39 0 60 11 278
142 52 32 37 6 -45 -76 -116 -116 -247 -195 -488 -295 -165 -69 -370 -116
-404 -93 -35 24 251 332 437 470 150 111 321 192 478 226 88 19 93 19 69 0z
m558 -744 c-44 -75 -48 -79 -51 -51 -4 39 31 107 66 125 15 8 29 13 30 11 2
-2 -18 -40 -45 -85z m231 4 c23 -60 -17 -169 -84 -227 -37 -31 -94 -56 -105
-45 -5 5 168 288 176 288 4 0 10 -7 13 -16z m-640 -636 c-4 -7 -31 -45 -60
-84 -64 -87 -84 -125 -84 -159 0 -37 15 -60 48 -74 42 -18 74 -1 154 79 l69
69 -51 -96 c-96 -180 -209 -331 -361 -482 -99 -98 -258 -224 -354 -278 l-57
-33 7 33 c16 69 79 237 130 342 102 211 222 371 424 568 124 120 152 144 135
115z m3895 -1842 c40 -9 185 -145 170 -160 -4 -4 -262 134 -276 148 -4 4 -1
12 7 17 14 9 39 8 99 -5z m626 -406 c423 -168 815 -475 1079 -844 31 -43 56
-82 56 -86 0 -10 -97 6 -210 35 -404 102 -771 328 -987 610 -36 47 -101 161
-87 153 5 -3 102 -60 216 -127 232 -136 262 -144 312 -95 46 47 28 114 -39
138 -16 6 -411 232 -424 243 -11 9 15 1 84 -27z m-357 -797 c49 -37 72 -90 72
-170 0 -41 -4 -63 -9 -57 -8 7 -108 182 -150 262 l-12 23 33 -17 c18 -9 48
-27 66 -41z m-163 -186 c37 -70 65 -131 62 -134 -23 -22 -143 40 -178 93 -26
39 -25 113 2 166 25 49 19 55 114 -125z m418 -599 c25 -20 78 -23 109 -7 11 6
28 28 37 50 l18 40 60 -88 c118 -173 213 -354 261 -498 23 -67 55 -215 49
-222 -6 -6 -218 218 -309 327 -108 128 -227 309 -270 411 -50 118 -55 145 -13
69 19 -36 45 -73 58 -82z m-1574 -430 c-67 -99 -215 -235 -235 -215 -7 7 76
120 129 176 50 51 136 115 145 107 2 -3 -15 -33 -39 -68z m-712 -71 c24 -22
54 -54 65 -70 l21 -29 -24 12 c-79 41 -189 137 -189 164 0 14 84 -38 127 -77z
m1171 -283 c71 -14 182 -56 182 -68 0 -15 -89 -47 -157 -57 -141 -20 -273 -5
-525 62 l-123 33 45 8 c233 40 451 48 578 22z m-1253 -13 c64 -8 61 -10 -39
-31 -132 -28 -396 -35 -381 -10 11 18 204 47 315 48 25 0 72 -3 105 -7z m420
-338 c45 -148 87 -205 152 -205 29 0 43 7 64 30 25 28 30 30 58 19 38 -14 74
1 99 43 l19 30 19 -21 c24 -27 114 -79 137 -79 51 0 -21 -125 -115 -198 -86
-66 -160 -95 -254 -100 -94 -5 -142 13 -192 74 -42 50 -57 112 -57 229 0 83
28 265 41 265 1 0 15 -39 29 -87z m-575 -175 c-54 -88 -68 -139 -46 -172 9
-14 29 -29 44 -32 15 -4 30 -8 34 -11 4 -2 -13 -61 -38 -131 -51 -148 -56
-207 -21 -239 31 -28 52 -34 85 -22 33 11 55 46 71 114 7 28 25 88 40 135 l28
85 7 -70 c30 -310 108 -490 350 -810 202 -267 256 -430 256 -774 0 -189 -11
-260 -53 -333 -21 -38 -22 -39 -31 -16 -40 102 -148 305 -216 408 -100 150
-120 178 -367 486 -276 347 -345 460 -394 651 -26 105 -26 263 1 361 36 131
112 257 227 380 27 28 52 52 56 52 3 0 -11 -28 -33 -62z m1391 -288 c-2 -317
2 -355 60 -614 22 -99 44 -226 50 -282 11 -121 -1 -289 -32 -431 -23 -108 -88
-303 -124 -372 l-23 -46 5 75 c11 154 -28 395 -103 633 -86 271 -89 287 -88
447 1 180 24 315 94 542 43 138 66 231 86 345 6 30 55 36 68 8 6 -11 9 -145 7
-305z"/>
</g>
</svg>
