<svg xmlns="http://www.w3.org/2000/svg" xmlns:xlink="http://www.w3.org/1999/xlink" version="1.1" width="558.67556pt" height="204.26953pt" viewBox="0 0 558.67556 204.26953">
<defs>
<clipPath id="clip_0">
<path transform="matrix(1,0,0,-1,-80.4158,579.051)" d="M45.47527 63.73177H746.5248V597.8646H45.47527Z"/>
</clipPath>
</defs>
<text xml:space="preserve" transform="matrix(.9305452 0 -0 .9305452 -16.684033 -18.81366)" font-size="12" font-family="HelveticaNeue"><tspan y="11.42395" x="0"> </tspan></text>
<text fill-opacity="0" xml:space="preserve" transform="matrix(.9305452 0 -0 .9305452 -16.684033 -18.81366)" font-size="12" font-family="Helvetica"><tspan y="136.1654" x="222.5032 231.1696 237.844 243.844 250.51839 257.1928">Rashes</tspan></text>
<g clip-path="url(#clip_0)">
<path transform="matrix(1,0,0,-1,-80.4158,579.051)" d="M147.7083 541.4307C148.7474 542.7125 150.6288 542.9091 151.9105 541.87 153.1923 540.8308 153.3889 538.9494 152.3498 537.6677 152.2944 537.5994 152.2359 537.5335 152.1747 537.4703L150.8495 536.0047 149.8133 534.8903C149.8419 534.8027 149.5231 533.8905 149.1528 532.6931L147.9242 530.2807 145.1633 521.8799C144.5527 519.9879 143.9649 517.8796 143.3143 515.6328L139.9777 504.0366 138.7534 499.6305 137.5972 495.7286C135.9403 490.3359 134.425 484.7951 132.8264 479.1154L131.4512 474.4587C130.6379 471.6547 129.7454 469.0037 128.9345 466.4892L124.9783 455.3812 124.0559 452.1545 122.7658 448.9288 121.0513 443.8173 120.3294 441.4981 118.2357 437.0502 117.7082 435.8698C117.4417 435.335 117.0538 434.8698 116.5757 434.5114 115.9922 434.0741 115.8655 433.1788 113.4442 433.5744L116.0781 434.3462C115.7947 434.0914 115.4696 433.7764 114.837 433.4893 113.4381 432.8542 111.7893 433.4735 111.1543 434.8724 111.1171 434.9542 111.084 435.0377 111.0549 435.1227 110.9245 435.5043 110.8287 435.9499 110.79 436.4741L112.1551 434.0931C110.2753 435.3881 110.746 435.9472 110.5769 436.5594 110.4177 437.1354 110.3953 437.7407 110.5114 438.3269L110.7951 439.7205 111.2941 443.5637 112.1384 446.5877 113.8785 452.2103 114.5791 454.7263 115.932 458.6715 119.5365 469.533C120.4679 472.1927 121.387 474.7211 122.1963 477.2799L123.6489 481.8904C125.5997 487.5293 127.4684 493.0421 129.4992 498.4495L130.9206 502.1458 132.492 506.4778 136.6879 517.8515C137.5282 520.0252 138.3303 522.1403 139.2102 524.1722 140.5706 527.4399 141.7653 530.3209 142.8509 532.7406L143.2455 534.3838C144.1152 536.2527 144.7712 537.427 145.6547 538.4467L146.0885 539.2729ZM94.43225 527.1458C93.84423 525.9957 92.43525 525.5401 91.28521 526.1281 90.16823 526.6993 89.70081 528.0499 90.22586 529.1893 90.69866 530.2153 91.40725 531.3211 92.33605 532.5316 93.25385 533.7983 94.45204 535.1514 95.83334 536.5364L97.73693 537.9457 101.0457 540.1794 102.3215 541.452C103.7477 542.5709 105.1313 543.6143 106.6356 544.6641L109.162 546.3397 111.411 547.8128C115.0068 549.9285 118.9655 552.0634 123.4251 554.0337L127.0777 555.6103 130.4462 556.8285C135.2676 558.4863 140.2808 559.7879 145.2021 560.6169L149.2503 561.1151C150.4177 561.2386 151.532 561.2645 152.5526 561.2791 157.0563 561.3667 161.4643 561.0518 165.7014 559.8346L168.8484 558.9279C170.694 558.3996 172.5522 557.699 174.3439 556.8769 177.2395 555.4668 179.9514 553.7982 182.4296 551.7969 183.3911 551.0087 184.2309 550.2063 185.0054 549.4411 185.7374 548.7214 186.4111 547.975 187.0369 547.2282 189.7026 544.0414 191.9137 540.5034 193.4802 536.7292L194.5911 533.7877C195.5869 530.9467 195.9418 528.0357 196.0206 525.2438 196.0548 523.3608 196.0696 521.3572 195.7756 519.2333 195.6222 518.0583 195.3637 516.9488 195.1045 515.9288 194.8667 514.9042 194.5119 513.9306 194.1715 513.0551 192.5774 509.2464 190.5092 505.3751 187.6168 501.5608L185.1836 498.5114C183.6891 496.7411 182.0592 494.9893 180.2568 493.2712 177.3655 490.5639 174.1956 487.9935 170.7791 485.584L167.0263 483.0078C165.7283 482.1695 164.4848 481.5335 163.3672 480.9424 158.5059 478.3236 153.3942 475.807 147.983 473.7226L143.7263 472.1592 140.1812 471.0406C135.2498 469.5093 130.461 468.4139 126.0114 468.0198 124.7845 467.9115 123.6132 467.8736 122.5169 467.8701 121.7284 467.8709 120.8493 467.8275 119.8222 467.9053 114.6956 468.3684 110.5274 470.6418 107.7061 473.5882 106.1023 475.2576 105.0448 477.2263 104.5724 479.2263 104.2914 480.3513 104.0659 481.6368 104.1613 483.0308 104.1817 483.2743 104.1094 483.8505 104.2553 484.7905 104.3941 486.3588 105.2849 487.7299 106.2208 488.7493 107.8597 490.4928 110.1049 492.6484 113.3763 494.5809 115.7884 496.0299 118.5652 497.0315 121.488 497.8186 123.5382 498.3492 125.659 498.7802 127.8419 499.0787L131.2649 499.6506C132.4459 499.7959 133.5283 499.8289 134.5295 499.844 136.6721 499.8904 138.9057 499.8238 141.1741 499.4278 143.6942 498.9373 145.8865 497.9607 147.8758 496.9149 148.8159 496.4247 149.8775 495.8976 150.9813 495.2317 153.0313 494.0759 154.575 492.4553 155.8697 491.0669 157.8914 488.8486 159.9321 486.4632 161.6916 483.6312L163.5127 480.6079C164.0691 479.6361 164.5203 478.6863 164.936 477.813 166.7341 473.8934 168.4926 469.8113 170.1825 465.4879L171.5848 462.1292 175.2487 452.7521 177.7755 445.9469 179.2135 442.4542 180.4518 439.1975C182.5885 433.9012 185.0015 428.9385 187.817 424.9145 188.3178 424.1857 188.9504 423.4337 189.6731 422.5849 190.7936 421.2124 191.9243 420.0595 193.1584 418.9869 194.5483 417.8318 196.0366 416.7041 197.5588 415.7095L200.0699 413.87 202.4107 412.561C203.0472 412.2415 203.7767 411.9421 204.5338 411.6667L207.2686 410.7129C210.1345 409.6249 212.9195 408.6796 215.8405 407.8833L219.0461 406.686C220.4766 406.1813 221.2271 404.6125 220.7224 403.182 220.3438 402.109 219.3427 401.3805 218.2051 401.3503L214.9353 401.3204C211.2898 401.7577 208.1635 402.3325 205.1322 402.9963L202.0096 403.8402C201.021 404.1161 199.9525 404.4594 198.8507 404.9175L195.7338 406.3074 192.8713 407.6461C190.597 409.0698 188.8081 410.3972 187.1039 411.7813 185.4965 413.0291 183.8827 414.4997 182.3704 416.1672 181.5519 417.1076 180.6768 418.1027 179.8252 419.3175 176.4057 424.2866 173.771 429.9012 171.4851 435.6854L170.2415 438.7838 168.84 442.6926 166.399 449.4661 163.2998 459.1161 162.2125 462.7007C160.8029 466.8026 159.2806 470.8159 157.7329 474.6472L156.7284 477.0665 155.2748 479.9002C154.0049 482.1833 152.3769 484.3201 150.6142 486.4635 149.5107 487.8368 148.5131 488.9647 147.4587 489.6635L144.7996 491.1389C143.1345 492.0303 141.5153 492.7301 139.9697 493.0436 138.2346 493.4306 136.4182 493.584 134.5 493.6311 133.6109 493.6469 132.7528 493.6434 131.9503 493.5708L128.5682 493.1968C126.7198 492.9368 124.8245 492.5459 123.0156 492.0714 120.3933 491.411 118.0933 490.5958 116.2989 489.5648 113.6486 488.0159 111.8711 486.3335 110.422 484.8158 109.9866 484.3701 109.8702 484.0692 109.8616 484.0012L109.9513 482.8384C109.9432 482.2614 110.0696 481.5857 110.3158 480.7756 110.6016 479.8772 111.1778 478.9348 112.1059 478.0834 114.0795 476.279 116.7902 474.986 120.2207 474.8522L122.4405 474.8795 125.3552 475.033C129.1227 475.4033 133.4595 476.4127 138.0933 477.8903L141.1995 479.02 145.2324 480.6298C150.2291 482.6541 155.0111 485.1063 159.6701 487.7235 160.7644 488.3493 161.7843 488.9241 162.6425 489.5191L166.166 492.0535C169.3354 494.2843 172.2266 496.6261 174.8116 499.0412 176.451 500.5458 177.9152 502.0574 179.2779 503.6064L181.4926 506.2773C183.9646 509.4685 185.7529 512.7157 187.1504 515.9402 187.52 516.7388 187.7837 517.3642 187.9508 517.9174 188.1773 518.728 188.3825 519.5506 188.4995 520.3027 188.713 521.7494 188.7325 523.3668 188.7169 525.1082 188.7196 527.4421 188.4989 529.5847 187.8631 531.5831L186.9371 534.0657C185.7281 537.1694 183.9575 540.1635 181.7612 542.9049L180.2064 544.6806C179.5201 545.3832 178.8393 546.051 178.1531 546.6339 176.1486 548.3623 173.9064 549.8507 171.506 551.1169 169.9798 551.967 168.4728 552.6748 166.8814 553.2671L164.0573 554.1066C160.6133 555.0515 156.8251 555.304 152.6891 555.1783 151.7427 555.1447 150.8204 555.1001 149.9331 554.9884L146.2698 554.4043C141.6177 553.7239 136.8883 552.6033 132.3193 551.1398L129.2678 550.0775 125.6529 548.706C121.3952 546.9943 117.5516 545.1029 114.0705 543.2421L111.7177 542.0352 109.3342 540.5704 105.1039 537.8949 103.0898 536.7719C102.4491 536.1342 101.5657 535.2763 100.7764 534.435L99.61223 533.0926C98.02544 531.6431 96.90375 530.5252 96.05212 529.5258 95.29629 528.5875 94.72723 527.7227 94.43225 527.1458M213.0234 497.6333C214.4098 497.1509 215.1426 495.636 214.6602 494.2496 214.1779 492.8633 212.663 492.1305 211.2766 492.6128 211.083 492.6802 210.8978 492.7697 210.7248 492.8797L209.6719 493.5392C209.6689 493.4851 209.3119 493.5608 208.9419 493.5706 208.0265 493.6984 207.0029 493.6128 205.2004 492.9176L203.8772 492.2951C201.761 491.2593 199.3616 489.57 196.9447 487.3328L195.2245 485.7833C194.5184 485.0433 193.8145 484.0745 193.1541 483.0011 192.0336 481.2638 191.1079 479.3667 190.3395 477.3319L189.5841 475.0618 189.0691 473.2786C188.4527 470.7025 188.1695 468.327 188.2454 466.5389L188.2082 464.7686 188.267 464.5882C188.279 464.5566 188.0517 464.8531 188.1607 464.7295 188.8239 463.8767 189.0938 463.6647 189.2461 463.5998 189.5875 463.4577 189.988 463.3523 190.4016 463.3105 191.3625 463.2311 192.5623 463.3962 193.8169 463.9665L194.9653 464.5865C195.8551 465.1553 196.8301 466.0907 197.7078 467.2377 198.596 468.3637 199.433 469.2844 200.1041 470.2017L201.4547 472.0347C203.3013 474.5549 204.7797 477.5468 205.9565 480.9327L206.7416 483.2871C207.326 485.0417 207.624 486.7297 207.8729 488.2969L208.3285 491.2377 208.5778 492.7445C208.6762 493.5112 208.6815 494.1048 208.6727 494.5227L208.6884 495.2693C208.6883 495.3069 208.7169 494.9057 208.7029 495.0319 208.6915 495.1347 208.8271 494.4464 208.7809 494.6199 208.7067 494.8978 209.5832 493.1867 209.2913 493.5749 208.9903 493.9753 210.9007 492.4202 210.4697 492.6205 210.6019 492.5325 212.1919 492.339 211.9706 492.326 211.6732 492.3084 212.4965 492.4097 212.4458 492.3967L212.3735 492.3747C211.8351 492.2375 213.2418 492.807 213.0565 492.6886 212.9059 492.5923 213.4287 492.9817 213.3655 492.9237 213.1902 492.763 213.4422 493.0064 213.3031 492.7913L212.703 491.7568C211.8727 490.3093 210.9243 488.0141 210.0313 485.4418L209.4369 483.707 208.7241 480.9186C208.3269 479.2765 208.0979 477.6924 208.0266 476.1852L208.0956 474.6549 208.1936 473.4429C208.2307 473.0643 208.2568 473.104 208.7151 472.7275 209.1667 472.3737 209.5432 472.2082 209.8703 472.1511 211.013 471.8637 212.4975 471.9301 214.4248 472.6902 216.0359 473.3361 217.9136 474.7704 219.7239 476.8318L221.0652 478.375C221.8398 479.2681 222.4941 480.1551 223.0757 481.0418 223.9953 482.54 224.9025 484.3594 225.789 486.3404L226.8227 488.6741C228.2798 492.1565 229.5402 495.5323 231.4274 498.154L232.4022 499.4911C233.1874 500.4706 234.1207 501.2113 235.2231 501.6229 236.0896 501.9551 237.4722 502.2458 238.9208 501.6884 240.372 501.13 241.2314 499.9713 241.6962 499.0385 242.8637 496.9207 242.9936 494.6111 243.2778 491.7571L243.5154 489.8504C243.9364 486.6009 244.2119 482.8376 244.3948 478.8262L244.4428 476.0158 244.5012 473.9571C244.3626 470.8371 243.6919 468.2719 242.658 466.0751L241.8789 464.2672 240.7683 462.1218C240.046 460.7824 239.1722 459.6791 238.427 458.7773 237.308 457.3791 236.0937 455.9621 234.6121 454.7598L233.2237 453.6424C231.4782 452.3859 229.3869 452.0171 227.7166 452.1987 226.597 452.3706 225.5543 452.6793 224.5645 453.2225 222.21 454.6634 221.5439 456.4698 220.9132 457.9155 220.086 459.7439 219.7645 461.6369 219.5367 463.3741L219.3188 465.2795C219.2613 465.9071 219.2644 466.5162 219.3004 467.0539 219.4155 468.9416 219.2346 471.2014 221.4523 473.0033 221.6323 473.1387 221.9433 473.4798 222.7196 473.8388 223.5832 474.5654 225.0351 474.3994 226.0424 474.202 227.0204 474.0103 227.8842 473.6935 228.7527 473.3935L229.5496 473.3322C230.7219 473.0511 231.6111 472.8928 232.5749 472.7863L233.5041 472.9173C235.6441 472.8561 237.374 472.8966 239.405 473.2061L241.66 473.7059C242.9109 474.0046 244.2546 474.5398 245.7125 475.2306 248.3415 476.2977 250.6466 477.4272 252.6507 478.6784L254.7031 480.0866 256.2488 481.2377C257.228 482.1375 258.2633 483.1217 259.1777 484.0991 260.418 485.2536 261.2812 486.1501 262.0333 487.1056L263.1174 488.7799C263.8876 489.9585 264.5121 491.0974 265.0793 492.3268 265.9861 494.3576 266.8108 496.5595 267.509 498.8371L268.1896 501.3395 268.6329 503.3995C269.0542 505.7669 269.4166 508.0788 269.6052 510.2548 269.75 511.778 269.7789 513.3096 269.7897 514.8121 269.7259 516.08 269.7313 517.2835 269.6328 518.1481 269.4418 520.2453 268.814 522.1159 268.1834 523.9731L266.9694 527.102C266.5854 527.9817 266.2255 528.6711 266.087 528.8818 266.0981 528.8644 266.1884 528.7532 266.1404 528.8101 266.0962 528.8624 266.5719 528.3962 266.4175 528.5316 266.2913 528.6421 267.2566 527.9728 266.9877 528.1268 266.7742 528.2491 268.1925 527.6646 267.8335 527.7689 267.5539 527.8502 269.2022 527.5986 268.8235 527.6114 268.5332 527.6212 270.0777 527.7498 269.7535 527.6862 269.2618 527.5897 271.585 528.511 271.1642 528.2462 270.7505 527.9859 272.3722 529.3763 272.1369 529.0952 270.6142 527.276 267.905 527.0356 266.0859 528.5583 264.2667 530.081 264.0263 532.7902 265.549 534.6093 266.4253 535.6562 267.7469 536.2242 269.1094 536.1395 270.6759 536.0421 271.8268 535.0589 272.2926 534.4707 273.3795 533.0982 273.1516 532.8544 273.3034 532.4077L274.1566 529.6362 275.1255 526.0974C275.6724 524.2998 276.4774 521.7902 276.6749 518.7796 276.7404 517.2617 276.6335 515.9738 276.6167 514.741 276.6773 513.351 276.7263 511.6106 276.6305 509.7678 276.4772 507.2277 276.1406 504.7029 275.7564 502.1892L275.313 499.6589 274.6571 496.8959C274.1484 494.3873 273.4642 491.8169 272.6445 489.3405 272.1413 487.7547 271.5187 486.1551 270.7614 484.5966L269.3249 482.0492C268.5977 480.6732 267.613 479.209 266.5627 477.8392 265.173 476.27 263.9725 475.0891 262.7656 473.9434 262.3214 473.4795 261.6024 472.7919 260.7223 472.1097L257.8676 470.2622C255.3953 468.6534 252.6152 467.2432 249.8214 466.0617 247.6516 465.2848 245.622 464.6729 243.4307 464.3998 242.3338 464.2826 241.2574 464.188 240.1215 464.1798 237.3766 464.1362 234.9719 464.4737 232.9434 464.9489L230.6453 465.8611C229.9887 465.9803 228.7967 466.3888 227.6871 466.8957L226.0242 467.9292 224.6035 468.4296 224.445 468.478C224.3897 468.4808 224.8813 468.525 224.7404 468.4999 224.5901 468.4732 225.468 468.7889 225.2747 468.6864 225.6364 468.9071 225.9534 469.2018 225.9272 469.1683L225.6035 468.7592C225.2852 468.4236 225.7322 469.0064 225.718 468.9701 225.7082 468.9453 225.5787 468.0656 225.5778 466.8418L225.6416 465.9997 225.9326 464.5206C226.2687 463.1599 226.704 461.8766 227.1443 461.1542L227.871 460.1473 227.9836 460.0355C228.006 460.0189 227.5629 460.2253 227.7196 460.1679L228.3089 460.0209 228.5713 460.0203 229.5459 460.8415C230.2394 461.4503 231.1235 462.498 232.0822 463.7752 232.6203 464.5165 233.0949 465.2273 233.4173 465.9134L234.1469 467.7169 234.8604 469.4666C235.2413 470.5523 235.5054 472.0749 235.45 473.6953L235.5089 476.1095 235.5505 478.6594C235.6584 482.6107 235.673 486.2017 235.5635 489.2539L235.4505 491.1882C235.2933 493.7664 234.9566 495.6812 234.8851 495.8435 234.9375 495.7296 235.3861 495.1567 235.2039 495.3557 235.0547 495.5187 236.1635 494.6767 235.8711 494.8372 235.4223 495.0835 237.6431 494.5047 237.255 494.4949 237.0733 494.4902 237.7809 494.5676 237.6797 494.5451 237.5869 494.5243 237.8721 494.6019 237.8493 494.5934 237.6755 494.5265 238.3348 494.8645 238.2696 494.8141 238.2152 494.7721 238.3241 494.866 238.2879 494.8203L237.4915 493.7301C236.4931 492.4019 235.0976 489.255 233.5802 485.7531L232.5143 483.2891C231.4496 481.0856 230.3466 479.0167 229.0751 477.0923 228.4258 476.0415 227.6117 474.8745 226.6718 473.7393L225.1678 472.0927C223.031 469.4287 220.4785 467.0943 217.4396 465.6772 214.5517 464.3107 211.5088 463.5851 208.4891 464.0929 206.2294 464.6613 204.6957 465.6934 203.5235 466.7803 202.2681 467.8938 200.6018 469.8676 200.4726 472.7231L200.547 474.496 200.6893 476.7374C200.7976 478.5766 201.1185 480.5998 201.6259 482.5777 201.992 483.8502 202.38 484.9664 202.7871 486.0468L203.4082 487.7788C204.3925 490.5635 205.4273 493.1322 206.6303 495.1864 207.0859 495.9267 207.4919 496.5558 208.0051 497.1639 208.5333 497.7898 209.1208 498.8222 211.1709 498.967 211.676 498.9824 212.6574 499.4104 214.1464 497.9677 214.5359 497.7672 215.0448 496.7362 215.1659 496.0814 215.4565 494.5101 215.157 494.5783 215.1532 494.474 215.132 493.9038 215.0855 492.9495 214.8938 491.7316L214.7256 490.4388 214.2856 487.3488C214.0783 485.7004 213.781 483.6041 213.0821 481.3226L212.2039 478.7795C210.9585 474.9263 209.2949 471.2883 207.076 468.1011L205.5902 466.1398C204.6602 464.8895 203.7362 463.8951 203.0534 463.0455 201.6879 461.3967 200.1323 459.9667 198.3239 458.9191 197.8255 458.6138 197.2174 458.2691 196.5447 457.9635 194.2507 456.9316 191.9083 456.5821 189.7824 456.7696 188.7575 456.8411 187.7231 457.0797 186.7676 457.4417 185.0302 458.0834 183.8554 459.2993 183.0173 460.2921 181.9897 461.6822 181.6228 463.0843 181.5826 464.5742L181.5458 466.2571C181.5453 469.028 182.0315 471.8921 182.8496 474.8796L183.5588 477.1157 184.6817 479.6877C185.6469 481.9616 186.8462 484.1932 188.2822 486.2205 189.245 487.5205 190.2883 488.7386 191.5194 489.8158L193.2926 491.3854C196.1833 493.8343 199.0587 495.6828 201.81 496.8295L203.4635 497.4578C205.477 498.4 207.3173 498.9523 209.1141 498.8834 210.5176 498.6559 211.3825 498.2804 212.0956 497.9034ZM272.7833 533.5626C272.976 533.1185 273.0924 532.6451 273.1275 532.1622 273.2502 530.4719 272.6013 529.6433 272.1345 529.0841 271.4027 528.2076 270.8716 528.0413 270.6494 527.9357 270.5188 527.8736 270.725 527.9719 270.621 527.9227 270.5274 527.8784 271.2661 528.2937 271.0669 528.168 270.7455 527.9651 272.5534 529.6679 272.1839 529.1872 271.8087 528.699 273.0672 531.2153 272.9425 530.7371 272.7446 529.9776 272.3481 529.2846 271.7938 528.729 271.4477 528.3822 272.6814 529.9996 272.5249 529.7101 272.3945 529.4688 272.8522 530.4887 272.7945 530.3219 272.7004 530.0502 272.9611 530.9841 272.9413 530.8752 272.8959 530.6267 272.9632 530.9557 272.9129 530.6127L272.2874 525.8599C272.1266 524.4632 271.8522 522.9779 271.599 521.4047L270.3721 512.9144 269.8767 509.6406 269.4419 506.0002 268.8078 502.0439 266.2897 488.7816 265.4146 484.4971 264.504 480.1062 262.8418 473.4249 260.8564 465.327 260.3686 463.0234 259.9218 461.0823 258.2394 454.5573 257.9546 453.6479C257.9533 453.6441 258.0028 453.8039 257.983 453.7383 257.9659 453.6814 258.1099 454.2372 258.0683 454.0587 258.0332 453.9079 258.2302 455.3032 258.194 454.8624 258.1791 454.6815 258.1961 455.839 258.208 455.5528 258.2189 455.2904 258.0075 456.872 258.0872 456.5017 258.1593 456.1666 257.5537 457.9948 257.7277 457.6038 257.8824 457.2561 256.8827 458.9733 257.1272 458.6395 257.5569 458.0529 254.9969 460.4426 255.5707 460.0845 255.9941 459.8203 253.9089 460.7968 254.3138 460.6671 254.9059 460.4774 252.2632 460.9423 252.7243 460.9327 253.1699 460.9234 251.2553 460.7771 251.578 460.8379L250.8352 460.6446C251.1789 460.7597 249.981 460.2692 250.1349 460.3492 250.379 460.4763 249.6364 460.0383 249.7056 460.0886L250.0793 460.5117C251.3646 461.9498 253.4556 464.9139 256.1053 468.8176L257.9705 471.5392 261.4919 476.7643C263.343 479.5575 265.2378 482.5936 267.3191 485.3538L269.5321 488.2709C270.2712 489.1871 271.0228 489.9468 271.7556 490.5643 273.6057 492.1332 275.3447 493.5014 278.0735 493.6521 278.396 493.7 279.1241 493.7902 280.1278 493.6421 281.1965 493.4845 282.548 492.9027 283.4886 491.9701 285.2279 490.1873 285.7739 488.1374 286.1381 486.0348 286.3738 484.3758 286.5571 482.6595 286.7088 480.8053L287.1565 475.202 287.3636 473.2313 287.7223 469.9949C287.9794 468.5736 288.2665 467.2914 288.5708 466.4963L289.0089 465.2476C288.7712 465.7264 287.536 466.0659 288.5786 466.2242 290.1958 466.391 290.4985 466.3063 290.6075 466.3187 290.9874 466.3565 292.4143 466.8644 294.255 467.9864 295.8071 468.9182 297.2473 469.7651 298.484 470.6442 298.6782 470.7822 298.8804 470.9087 299.0894 471.0231L301.6086 472.4212 302.8315 473.4063 304.4412 474.9197 305.9551 476.4464C306.1483 476.649 306.3567 476.8365 306.5785 477.0073 307.6776 477.8537 308.6146 478.6444 309.3339 479.3716L310.2067 480.5842 310.6538 481.3489C310.8542 481.7706 311.1205 482.1576 311.4427 482.4955L312.5117 483.508C313.9544 484.9529 316.2953 484.9548 317.7402 483.5122 318.1775 483.0756 318.4984 482.5364 318.6735 481.9439 318.9609 480.9717 318.956 480.2844 318.9943 479.9085 319.0417 479.4439 319.0147 478.9748 318.9144 478.5187 318.7513 477.7775 318.4885 476.9057 318.0381 475.9778L316.7659 473.7096C316.3647 472.6389 315.4814 471.1138 314.5125 469.6414 314.3586 469.4075 314.187 469.1857 313.9993 468.978L312.1985 467.0668 310.419 465.2286C309.9808 464.7306 309.2222 463.9201 308.2598 463.0974L306.0479 461.1099C305.8693 460.9521 305.6815 460.805 305.4856 460.6692 303.6774 459.416 301.9372 458.436 300.4618 457.5759 297.857 456.0808 295.1125 454.6609 291.6388 454.4516 290.1555 454.3852 289.7313 454.511 289.5847 454.508 287.0456 454.5818 284.7359 455.1935 282.8748 456.5739 281.0215 457.9484 279.8715 459.9341 279.3413 461.7859 279.1988 462.0619 279.0332 462.6759 278.8929 463.1201 278.3122 465.2192 278.1279 467.0455 277.9563 468.8166L277.6073 472.3485 277.5272 474.606 277.151 480.0842 276.7303 484.6427 276.5054 486.1533C276.4512 486.3553 276.725 485.898 276.576 486.1081 276.3805 486.3926 277.4671 485.271 277.1915 485.4812 276.9859 485.638 277.9953 485.0348 277.8048 485.1183 277.5347 485.2367 278.4208 484.9399 278.3433 484.9519L278.2144 484.9553C278.2547 484.9479 278.9448 485.0334 278.9058 485.0207 278.9022 485.0195 278.2459 484.695 277.3309 483.9285 277.0577 483.6982 276.674 483.3198 276.275 482.8251L274.2989 480.2018C272.6542 477.8347 270.9266 474.8624 269.0783 471.8488L265.95 466.4744 264.3201 463.6917C261.98 459.5853 260.2305 456.3997 258.8514 454.1891 257.7671 452.5901 256.7902 451.5752 256.7657 451.5483L257.2428 452.1509C257.1017 451.9451 257.0591 451.563 255.7791 450.6817 254.406 449.7362 251.1258 449.5398 249.4923 450.6059 246.9981 452.2339 247.1256 453.6805 246.9978 454.3848 246.6919 456.0701 246.9404 456.3128 246.9945 456.7059L248.6671 463.779 249.155 465.6394 249.8337 468.1729 251.755 476.2159 253.3063 482.5788 254.4365 486.9819 255.4103 491.1369 258.3541 504.0622 259.2364 507.7882 260.1922 511.6126 260.8486 514.6898 262.6628 523.1023 263.4414 527.154C263.7457 529.3381 263.9007 530.8539 264.1364 532.0907L264.2614 532.6864C264.3701 533.1281 264.3854 534.2071 266.0611 535.427 266.6962 535.8894 267.443 536.1742 268.2246 536.2522 269.5624 536.3857 270.6603 535.8668 271.2383 535.4593 272.6423 534.4695 272.2817 534.7185 272.7833 533.5626M314.8908 485.8305C316.4462 486.1956 318.0032 485.2306 318.3683 483.6752 318.7334 482.1197 317.7685 480.5628 316.213 480.1977 316.1523 480.1834 316.0911 480.1711 316.0296 480.1608 315.8374 480.1286 316.7253 480.4568 316.5728 480.363 316.3563 480.2298 316.8877 480.6459 316.883 480.6382L316.7277 480.2051C316.7 479.9817 316.6937 479.0698 316.76 477.9398L316.9484 475.4343C317.0897 474.5983 317.6267 473.5228 318.284 472.6371L318.7444 472.1131C319.1528 471.6459 319.2406 471.5785 319.724 471.5486L322.1839 471.3658C322.4558 471.3544 322.7261 471.3177 322.9912 471.2561L323.931 471.0844C324.346 471.1048 325.5589 471.2818 327.06 471.6413 327.9981 471.8649 329.1841 472.2699 330.5853 472.7438L334.1949 474.0108C334.4154 474.0922 334.6425 474.1549 334.8736 474.1981L336.6905 474.5643C338.1978 475.0915 340.1315 475.8326 342.0489 476.6474L344.388 477.2135C345.9796 477.5597 347.5506 476.5501 347.8968 474.9585 348.0994 474.0275 347.8396 473.0559 347.1995 472.3501L345.6843 470.8682C343.1681 469.3461 341.1718 468.2944 339.1588 467.3374L337.7332 466.4701C337.5296 466.3525 337.3165 466.2523 337.0961 466.1705L333.2834 464.8244C331.9136 464.3502 330.5346 463.8499 329.0465 463.4817 327.1649 463.0182 325.3102 462.6751 323.3875 462.6848L322.0724 462.604C321.8003 462.5995 321.5283 462.6203 321.2601 462.6663L318.5803 463.2336C316.1837 463.7537 313.9306 465.2651 312.6656 467.3999L311.9124 469.1503C311.213 470.7273 310.5708 472.8634 310.6652 475.2007L310.756 477.9069C310.8068 479.2074 310.8914 480.4987 311.3047 481.7872 311.6503 483.3538 312.7692 485.3324 314.8908 485.8305M320.8853 508.0613C320.9429 506.5516 319.7657 505.2811 318.256 505.2235 316.7464 505.166 315.4759 506.3431 315.4183 507.8528 315.3969 508.4151 315.5494 508.9704 315.855 509.4428L316.4956 510.3642 316.0491 509.2573 316.194 510.4784C316.2129 510.8561 316.31 511.2257 316.479 511.564 316.5998 511.8058 316.571 511.5904 316.5837 511.7423L316.6654 510.8744C316.6296 511.0031 317.0325 510.3272 316.9159 510.4462 316.8072 510.5571 317.1089 510.3044 317.0748 510.3176 316.9477 510.3703 316.5371 510.4737 315.8972 510.4826 315.1922 510.4562 314.3668 510.4012 313.5333 510.2049 312.2222 509.965 310.6785 509.3269 309.0993 508.4656 308.0747 507.9006 307.2352 507.3813 306.7856 506.9977L306.6018 506.7796C306.5666 506.7063 306.6283 507.7258 306.6719 507.4242 306.7151 506.9626 306.4806 507.9421 306.5406 507.8174 306.6168 507.6591 306.4455 507.9629 306.5376 507.8684L307.1375 507.3542C307.6686 506.9738 308.5705 506.4355 309.6158 505.8353L313.0001 503.8529 315.4356 502.4289C316.8451 501.4025 317.8787 500.5649 318.7871 499.7329L319.5455 499.0842C320.5549 497.8328 321.0507 497.0488 321.3508 496.1462 321.6575 495.2239 321.988 493.532 320.3829 492.6036 319.6059 492.1541 318.6253 492.2731 317.9783 492.8952 317.8196 493.0477 318.1238 492.7761 318.0525 492.8205L316.0431 493.8744 314.77 494.7423 311.99 496.3286 309.3996 498.0032 306.1203 500.1623C305.0345 500.889 304.005 501.5945 303.0786 502.3968 302.0178 503.2518 300.4803 504.4097 300.3755 506.8349 300.4168 509.1294 301.7137 510.6379 303.0609 511.6493 304.0023 512.4206 305.1402 513.0436 306.3057 513.6613 308.2098 514.6817 310.2292 515.5752 312.3703 515.9402 313.9863 516.1318 315.2583 516.0331 316.2597 515.9129 317.2141 515.8466 318.2667 515.6726 319.2921 515.1166 320.5892 514.3489 321.4632 512.9222 321.5192 511.6447L321.3282 512.4951C321.6841 511.6487 321.7032 510.8241 321.6546 510.1459 321.6275 509.7686 321.5225 509.4009 321.3462 509.0663L320.5605 507.6974 320.8931 508.8439ZM320.8178 506.4823C321.3546 504.9244 320.5268 503.2263 318.9689 502.6895 317.411 502.1527 315.7129 502.9804 315.1761 504.5383 315.1144 504.7173 315.0699 504.9018 315.0432 505.0892 315.0257 505.2123 314.7738 505.9577 314.6489 507.0289 314.4942 507.2027 314.3536 508.1664 314.4375 509.1598 314.472 509.568 314.5876 509.9652 314.7777 510.3281L315.5081 511.4758 315.0441 510.5553C315.7305 512.8891 317.51 514.5248 319.5168 516.0966 320.4662 516.799 321.4647 517.6223 322.6471 518.429 323.9675 519.2281 325.1093 519.8118 326.1927 520.2902 327.5788 520.9506 329.0515 521.7116 330.5791 522.3553L332.1191 522.9681C334.1044 523.6644 335.4447 524.3386 337.7754 523.5377 338.0522 523.4312 337.8904 523.5049 338.2318 523.3885 338.6455 523.2473 339.5585 522.8929 340.2291 521.9095 340.9144 521.2268 341.0229 519.9518 340.9525 519.1257 340.8859 518.3448 340.6789 517.7386 340.4411 517.162 340.0145 515.9555 339.2152 514.6836 338.1668 513.3095 336.8658 511.3941 335.0895 509.0297 333.0697 506.6265L331.6759 505.0191 329.2296 502.3817 325.5771 498.6361 324.0547 497.2327 322.5409 495.6754C322.309 495.4166 322.0417 495.1919 321.7469 495.008L320.9865 494.5367 321.724 495.1521 321.3185 494.654C321.2757 494.5897 321.3861 494.8871 321.3478 494.756 320.8791 493.1529 319.1997 492.2333 317.5967 492.7019 316.4683 493.0318 315.6333 493.9858 315.4558 495.1479 315.2435 496.5381 315.679 497.838 316.2478 498.9368L315.9328 498.0289C316.032 498.5441 316.1858 499.0187 316.3672 499.4807 316.4942 499.8042 316.6663 500.108 316.8785 500.3833L318.7255 502.5361 319.945 503.9124 323.8258 507.7135 326.1738 510.0359 327.5806 511.5468C329.7137 513.6566 331.5867 515.7051 333.111 517.4449 333.8017 518.3308 334.2847 519.1715 334.4345 519.5596 334.4333 519.568 334.4141 519.0736 334.4087 519.3373 334.4055 519.4967 334.6974 518.2436 334.5659 518.5837 334.4253 518.9469 335.823 517.1115 335.407 517.4448 335.5945 517.2928 336.653 516.8285 336.4589 516.8864 336.1371 516.9823 337.2616 516.7671 337.1341 516.7719 336.8678 516.782 337.007 516.7153 336.3025 516.7849 335.9658 516.8312 336.4997 516.7823 336.4383 516.7821 336.2098 516.7813 335.8375 516.6756 334.8008 516.2466L333.3202 515.6655C332.0752 515.1908 330.6451 514.5154 329.0455 513.8128 328.3229 513.4697 327.4367 512.9907 326.5728 512.4459L323.358 510.4927C321.5008 509.4555 320.423 508.5463 320.2198 508.2228L320.6021 509.18 320.579 508.9657C320.5876 508.556 320.5143 508.1488 320.3635 507.7679L320.2879 507.4045ZM330.3908 396.452C329.0709 395.8218 327.49 396.3809 326.8598 397.7007 326.2296 399.0206 326.7887 400.6015 328.1086 401.2317 329.4285 401.8619 331.0093 401.3028 331.6395 399.9829 331.9163 399.4033 331.973 398.7429 331.799 398.1246 331.7618 397.9924 331.8014 397.9967 331.5975 397.5974 331.5628 397.5294 331.5248 397.4631 331.4837 397.3987 331.0596 396.7347 330.7453 396.6212 330.3908 396.452M327.2021 398.9192C327.2143 399.0061 327.2308 399.0924 327.2516 399.1778L327.2782 399.2786C327.6505 400.5827 328.9479 401.3949 330.2836 401.1599 330.4482 401.1309 329.7699 401.1641 329.8696 401.1755 329.9587 401.1857 329.7428 401.1513 329.754 401.1551 330.0206 401.2434 330.2996 401.2888 330.5806 401.2894 330.7732 401.2899 330.9091 401.373 331.6656 401.6902 332.3792 402.2709 333.7692 403.2245 335.2594 404.3655 337.1926 405.8621 339.3099 407.5114 341.2995 409.3735 342.8137 410.75 344.2515 412.4087 345.8398 414.2136L348.3905 417.1275 353.5697 422.8355 355.1008 424.4838C357.1205 426.6998 359.011 429.0258 361.0579 431.4458L362.5492 433.1276C364.1509 434.8939 365.5403 436.6214 366.7196 438.2047L369.7514 442.2966 375.0553 449.2266C376.2936 450.8352 377.3853 452.4518 378.4304 454.0631 379.1341 455.208 379.8088 456.448 380.4661 457.6867 381.6389 459.979 382.6792 462.3134 383.9477 464.815 384.862 466.5841 385.8726 468.2795 386.9127 470.048L388.7135 473.0063C389.8429 474.893 390.978 476.8558 392.0608 478.8589L393.0133 480.6135C393.6901 481.9202 394.296 483.3858 394.9714 484.9461L397.7355 491.2319C398.4629 492.8553 399.2436 494.3612 399.9801 495.8582L402.4233 500.8798C403.5876 503.2468 404.7696 505.6105 405.8519 507.9531L406.7236 509.945 408.1551 513.2099C409.2305 515.939 410.26 518.3189 410.9733 520.3943 411.5327 521.9972 411.9562 523.5346 412.3647 525.1331L413.7034 530.1878C414.2019 532.3612 414.7173 534.5398 415.0604 536.5938 415.3932 538.5898 415.5504 540.5487 415.5882 542.3158 415.6089 543.9156 415.4872 545.2614 415.2232 546.312 415.0525 546.977 414.6971 547.7011 414.2343 548.4972 413.4755 549.8395 412.8375 550.5601 412.5332 550.7667 412.12 551.0651 411.9002 551.1477 411.355 551.0955 410.9444 551.0504 410.5828 550.9637 410.1495 550.7426 409.4979 550.4084 408.5589 549.6619 407.6092 548.6257 407.0921 548.0448 406.5265 547.2636 405.9735 546.406 404.9969 544.8131 404.1507 543.0232 403.5832 540.989 403.0667 539.232 402.7656 537.2397 402.6539 534.9862 402.5573 532.9521 402.5018 530.9373 402.7293 529.0996 402.9532 527.3514 403.5331 525.552 404.2967 523.899 404.9607 522.4643 405.913 521.1522 407.0487 519.91 407.7143 519.1724 408.3148 518.5243 408.8946 518.0001 410.3505 516.7224 412.1201 515.7025 413.9911 514.9916 414.9798 514.6255 416.0889 514.3721 417.2889 514.1972 419.0247 513.9211 420.7018 513.8107 422.3153 513.9155 424.4637 514.0121 426.419 514.3381 428.4607 515.1598 429.9811 515.7687 431.4829 516.6218 433.0243 517.5931L436.5451 519.9702C438.1373 521.0918 439.7089 522.0662 441.1566 522.985L443.5409 524.3832C445.1046 525.4116 446.7073 526.5237 448.21 527.7477 449.8867 529.0104 451.3916 530.3758 452.8708 531.9575 453.8463 532.9818 454.7609 534.0158 455.5952 535.0987 456.7094 536.5681 457.748 538.2691 458.6253 539.9532 459.2717 541.1567 459.7747 542.2703 460.1486 543.3117 460.6121 544.6152 460.8399 545.8898 460.9226 547.006 461.0277 548.0116 461.0404 548.599 461.0115 548.8261 461.0095 548.8209 460.932 549.0029 460.6771 549.3083 460.5049 549.5144 460.2253 549.7276 459.6806 549.9852 458.7958 550.4208 458.0843 550.7468 457.5175 550.9217 456.3955 551.3538 455.9653 551.4816 455.7891 551.489 455.3499 551.5179 455.0891 551.4812 454.7298 551.2314 454.6933 551.1944 454.1972 550.5481 453.6833 549.4784 453.0738 548.174 452.5018 546.2852 452.0036 543.8824 451.6753 541.9914 451.3648 539.7414 451.1511 537.1036L450.8754 532.4743C450.7776 529.3732 450.7549 526.1031 450.945 522.8484L451.1249 520.1138C451.3 518.0448 451.7337 516.0264 452.2417 514.0065L453.2998 509.7383 453.9836 507.3376C455.0383 503.9728 456.5387 500.4431 458.2374 496.3351L459.394 493.4323 463.4579 483.8338 465.6334 478.6283 467.4497 474.0963C468.3804 471.7165 469.2077 469.3744 469.9746 466.9923L470.8303 464.4006C471.5392 462.0549 472.1372 459.7697 472.5827 457.4247 473.0773 454.8905 473.4032 452.3701 473.6492 450L473.9593 445.5724C474.0954 442.6711 474.1712 439.7976 474.1211 436.9362 474.0788 433.0301 473.0927 429.5589 472.0939 426.5292 471.6047 425.1645 471.1175 423.8839 470.5391 422.5874 469.4889 420.1454 468.1835 417.7526 466.6562 415.4812 465.9141 414.3496 465.0782 413.1923 464.1806 412.0667 462.7796 410.3734 461.3062 408.8472 459.7083 407.4124 458.0672 405.91 456.2624 404.5129 454.3972 403.228 452.4918 401.967 450.5578 400.8294 448.4888 399.8026 445.6069 398.3753 442.5946 397.2528 439.5819 396.2767 436.5888 395.3048 433.4827 394.474 430.2314 393.7954L427.6022 393.2082C423.3443 392.3248 419.103 391.9779 414.8798 391.7571L411.9948 391.6154C410.3198 391.511 408.6265 391.5051 407.0106 391.4968 404.2724 391.5232 401.4603 391.5663 398.5464 391.8617L395.4223 392.2917C392.5101 392.7987 389.8107 393.5076 387.2294 394.3075 384.6607 395.0554 381.9442 395.8806 379.2583 396.9396 377.5512 397.617 375.9387 398.3768 374.3721 399.1854 371.8531 400.5223 369.4102 401.9595 367.0213 403.5062L364.4839 405.1547C362.1669 406.7209 360.0392 408.2963 358.0772 409.8226 356.0757 411.3685 354.2446 412.8913 352.6171 414.3135 350.2382 416.3239 348.0158 418.1346 346.1596 420.4421 344.1816 422.9182 343.0232 425.5859 342.198 427.9966 341.6484 429.7429 341.3382 431.2944 341.0923 432.6216L340.6232 435.8713C340.5108 436.423 340.2457 436.7339 339.9317 438.0918 339.8555 438.3374 339.5235 439.0201 339.8315 440.4858 340.1744 442.1171 341.8699 443.5622 342.9576 443.9289 344.5472 444.3616 345.1127 444.1857 345.2407 444.1848 345.7674 444.1722 346.7521 444.2032 348.0578 444.0884L351.3827 443.7726 356.1619 443.5098 361.7952 443.2678 369.4122 443.2399 372.5965 443.3281C377.5722 443.3965 382.7023 443.7112 387.8333 444.7825L391.8378 445.4195C393.9386 445.8163 396.0979 446.2986 398.1807 446.7963L401.7895 447.2831 410.8958 449.4789 413.9205 449.8531C415.7114 450.0288 417.3057 448.7194 417.4815 446.9285 417.6028 445.6914 417.0098 444.493 415.9527 443.8392L413.5124 442.4748C410.0286 441.2196 406.8521 440.1671 403.5957 439.1289L400.9879 438.0238C398.3422 437.25 396.0547 436.6465 393.6827 436.1074L389.9693 435.2369C383.7284 434.037 377.9566 433.8054 372.7188 433.8336L369.2657 433.9276C366.3755 434.0171 363.7143 434.1462 361.35 434.3054L355.6689 434.685C353.6772 434.8006 352.034 434.8849 350.5297 435.0538L347.139 435.5315 344.9567 435.6478 344.4298 435.6943C344.4272 435.6944 344.654 435.6926 344.5637 435.6916 344.4619 435.6903 345.2593 435.7757 345.0401 435.7375 344.6667 435.688 345.3777 435.823 345.194 435.7766 345.0244 435.7338 346.0319 436.0956 345.8002 435.9901 345.3757 435.7967 347.4985 437.4339 347.1105 436.9794 346.8211 436.6406 347.877 438.3591 347.7438 438.0256 347.6473 437.784 347.9684 438.8491 347.933 438.6665 347.8827 438.4074 347.9919 439.3584 347.9913 439.2346 347.9908 439.1237 347.9829 439.433 347.9845 439.417L348.1209 439.1032C348.2732 438.5738 348.4639 437.8472 348.6004 436.973L349.204 434.4048C349.5083 433.1776 349.8289 431.9652 350.2371 430.8694 350.9184 428.8904 351.7013 427.193 352.8243 425.7899 353.9561 424.366 355.7633 422.8058 358.1737 420.7504 359.6759 419.5123 361.4156 418.1394 363.3123 416.7455 365.1907 415.3751 367.2071 413.9718 369.3355 412.6178L371.7997 411.0567C373.9795 409.737 376.237 408.4997 378.5045 407.384 379.9184 406.6682 381.2568 406.0532 382.6165 405.5256 384.8739 404.644 387.3264 403.8994 389.8769 403.1648 392.1318 402.5572 394.4647 402.0404 396.8093 401.718L399.5088 401.3468C401.9252 401.0965 404.4462 401.0442 407.0434 401.0128 408.7166 400.968 410.2277 400.9278 411.6726 400.9704L414.3539 401.1373C418.3791 401.3594 422.1378 401.6946 425.6651 402.4374L428.2499 403.0141C431.0945 403.6804 433.8393 404.49 436.4839 405.4248 439.1734 406.3774 441.7209 407.4202 443.9639 408.6119 445.607 409.4833 447.1523 410.449 448.6448 411.4973 450.2813 412.6019 451.7369 413.7116 453.023 414.8644 454.2242 415.9624 455.3373 417.1388 456.3432 418.3764 457.1273 419.3068 457.8093 420.1971 458.4433 421.106 459.6097 422.8198 460.6255 424.6563 461.4718 426.5922 461.8607 427.5159 462.2417 428.5741 462.6161 429.6865 463.6223 432.4344 464.3332 434.8265 464.4336 437.2238 464.5234 439.7736 464.5015 442.441 464.4182 445.2183L464.1872 449.1119C464.0216 451.3465 463.7901 453.5999 463.4252 455.7932 463.0949 457.7199 462.6203 459.6924 462.0332 461.7642L461.3161 464.3081C460.6289 466.4263 459.8612 468.5866 459.0073 470.7597L457.2503 475.255 455.2923 480.6727 451.8563 490.6575 450.8405 493.443C449.3283 497.6458 447.9311 501.4648 446.9359 505.3883L446.3066 507.8799C445.9129 509.4622 445.6229 510.9789 445.3258 512.4293 444.8927 514.69 444.4985 517.1115 444.4142 519.7308L444.3628 522.6203C444.318 526.1525 444.5043 529.6067 444.7661 532.8488L445.1974 537.6734C445.5038 540.4999 445.9198 542.9373 446.372 545.0647 446.8366 547.6607 447.4182 549.9586 448.2432 551.9246 448.8365 553.3823 449.5261 554.8344 450.8112 556.0505 451.9767 557.3122 453.6759 558.127 455.2374 558.4439 456.9391 558.7433 458.3006 558.4912 459.2547 558.3362 460.8284 557.9644 461.9194 557.5084 462.8661 557.1089 464.1308 556.5515 465.5079 555.7476 466.6619 554.4348 467.5438 553.4332 468.5021 551.9697 468.8601 550.0608 469.1292 548.8854 469.1162 547.6946 469.0799 546.5722 468.9598 544.6794 468.6207 542.6788 467.8908 540.5772 467.3833 539.1012 466.7279 537.6144 465.9539 536.1316 464.8437 534.0688 463.5601 532.0114 462.0612 530.0882 461.0275 528.7409 459.9231 527.4927 458.8318 526.3425 457.0021 524.449 455.1136 522.7874 453.1235 521.3484 451.0404 519.9606 449.0871 518.8847 447.1456 517.8699L445.127 516.6787C443.6077 515.7491 442.1346 514.865 440.7136 513.8964L436.9886 511.37C435.2968 510.2633 433.4271 509.1364 431.3041 508.2448 428.3632 507.0156 425.4777 506.5057 422.7878 506.3446 420.4308 506.2505 418.2038 506.4657 416.0744 506.8606 414.4598 507.1817 412.8582 507.623 411.2812 508.3021 408.7457 509.3687 406.29 510.8859 404.1716 512.878 403.3245 513.6509 402.5765 514.48 401.8904 515.2479 400.4193 516.9162 399.0509 518.8285 398.0563 521.0784 397.0892 523.262 396.3205 525.7039 396.027 528.3069 395.735 530.8021 395.841 533.1935 395.9579 535.3349 396.0974 537.9932 396.4663 540.506 397.1619 542.841 398.0184 545.5774 399.2306 547.9102 400.5771 549.9376 401.2015 550.9264 401.9315 551.9742 402.7816 552.9468 404.0072 554.3903 405.3675 555.6795 406.9644 556.6022 408.1665 557.3001 409.3891 557.6684 410.4242 557.8549 412.393 558.2371 414.5816 557.9063 416.3665 556.8733 418.2981 555.6714 419.503 554.0177 420.5701 552.2417 421.2058 551.1542 421.9271 549.8113 422.3616 548.1324 422.8554 546.2644 423.016 544.2893 423.0095 542.2247 423.0203 540.1581 422.8908 537.8456 422.5442 535.4317 422.2017 533.0406 421.6995 530.7082 421.2446 528.4942L420.1369 523.2498C419.6753 521.4471 419.1865 519.6683 418.5233 517.7747 417.642 515.296 416.5539 512.8659 415.4802 510.2087L414.0689 506.7679 413.0332 504.5604C411.8809 502.1184 410.65 499.7078 409.4894 497.3978L406.8791 492.3352 404.5797 488.0146 401.6052 481.9021C400.876 480.4183 400.1314 478.8223 399.1823 477.1844L398.1797 475.4397C396.9613 473.3472 395.7097 471.3358 394.4663 469.4069L392.6567 466.5728C391.5562 464.8154 390.5561 463.2411 389.7212 461.7435 388.412 459.4372 387.2486 457.1477 385.8556 454.715 385.1753 453.4844 384.4161 452.139 383.5441 450.7728 382.5428 449.1172 381.4068 447.317 380.0706 445.4767L375.0246 438.4709 371.757 434.3752C370.4977 432.696 368.9784 430.8178 367.2332 428.9044L365.7749 427.3281C363.6508 425.0168 361.6088 422.7118 359.3413 420.4221L357.8439 418.8897 352.6747 413.334 350.0232 410.423C348.3562 408.6676 346.7237 406.9126 344.857 405.3523 342.4726 403.4177 340.0951 401.8382 337.9988 400.4804 336.3116 399.3747 334.7685 398.4949 333.5655 397.8149 333.3093 397.5061 332.8196 396.9993 332.163 396.513 331.9373 396.3458 331.6864 396.2155 331.4197 396.1272 330.8363 395.9339 330.1213 395.8105 329.366 395.9434 328.0302 396.1784 327.0878 397.3846 327.183 398.7376ZM486.3766 456.5937C486.3766 455.2488 485.2863 454.1585 483.9414 454.1585 482.5965 454.1585 481.5062 455.2488 481.5062 456.5937 481.5062 457.9386 482.5965 459.0288 483.9414 459.0288 485.2863 459.0288 486.3766 457.9386 486.3766 456.5937M482.7514 458.8466C483.7329 459.6574 485.1859 459.519 485.9967 458.5375 486.8039 457.5604 486.6708 456.1149 485.6988 455.3015 485.673 455.2799 486.1569 455.9236 485.983 455.6459 485.9336 455.5671 486.2029 456.1061 486.146 455.9659 486.1012 455.8554 486.3006 456.5562 486.2684 456.3841 486.2175 456.112 486.0737 457.8871 486.2057 457.4597 486.3421 457.0184 485.0493 458.8673 485.4025 458.6018 486.4212 457.8363 486.6265 456.3898 485.8609 455.371 485.0954 454.3523 483.6489 454.147 482.6301 454.9126 482.6159 454.9233 482.6018 454.9341 482.5878 454.9451 481.9326 455.4616 481.6374 456.4704 481.7092 457.0739 481.886 458.5596 482.4408 458.5899 482.7514 458.8466M484.4747 459.0286C484.9696 458.928 485.4184 458.6692 485.7534 458.2913 486.7513 457.1656 486.3271 457.0507 486.3389 456.8991 486.3529 456.7195 486.3236 457.0352 486.3383 456.8788 486.3473 456.7837 486.1488 457.6351 486.2333 457.3782 486.2795 457.2377 485.829 458.1465 485.9744 457.9207 486.0513 457.8011 485.499 458.4722 485.6484 458.3237 485.8057 458.1673 484.4787 459.0086 484.8885 458.8346 486.1212 458.3112 486.6962 456.8876 486.1728 455.6549 485.6494 454.4222 484.2258 453.8472 482.9931 454.3706 481.7604 454.894 481.1854 456.3176 481.7088 457.5503 482.0228 458.2898 482.6826 458.8257 483.4707 458.9814 483.8047 459.0475 482.8801 458.7847 482.9659 458.8225 483.2276 458.938 482.6575 458.6577 482.6736 458.6679L482.8331 458.7638C482.9736 458.8422 482.6525 459.399 484.4747 459.0286M486.0222 457.58C486.5166 456.4955 486.0382 455.2155 484.9537 454.7211 483.8692 454.2267 482.5893 454.705 482.0949 455.7896 481.6004 456.8741 482.0788 458.154 483.1633 458.6484 484.007 459.0331 485.0022 458.8357 485.6353 458.1583 485.8856 457.8904 485.0608 458.5976 485.1671 458.5348 485.4492 458.3684 484.5368 458.7726 484.6399 458.7489L483.5168 458.6876 484.0406 458.9085 485.0665 460.0667C486.0859 460.9532 487.0667 461.7759 488.1383 462.796 489.6973 464.2661 491.442 466.0107 493.2198 468.1791 494.1917 469.3146 495.1315 470.6386 496.1279 472.0602 498.0191 474.7869 499.8914 477.7988 501.6492 480.9267L503.2042 483.5687C504.8639 486.5188 506.2845 489.5748 507.5818 492.6977 508.2905 494.4153 508.919 496.2052 509.5193 497.9464L511.1024 502.4229C511.9857 505.1932 512.5552 507.741 512.92 509.9582 513.2497 511.9054 513.3012 513.539 513.2729 515.053 513.2667 516.3567 513.2083 517.4412 513.0162 518.2937 512.7616 519.2941 512.1416 520.3344 511.4308 521.2982L510.4303 522.5132C510.1674 522.7689 509.9752 522.8744 509.9033 522.9049L509.4982 523.0646C509.3533 523.0894 510.6233 523.3951 510.3673 523.2416 510.2011 523.1451 510.2543 523.2647 510.0668 522.8465 509.9075 522.4399 509.6363 521.1666 509.2822 519.1642L508.2108 513.0157C507.8594 510.4035 507.4463 507.2135 507.0287 503.3964 506.559 499.038 506.1563 494.0505 505.7395 488.8475L504.9578 478.0258 504.6545 473.2621 504.205 468.5585 503.7002 463.0592C503.413 460.6349 503.0906 458.9215 502.9274 457.7549 502.8864 457.2201 502.8884 456.6677 502.9239 456.2327L502.9507 455.1543C502.956 455.0527 502.9252 455.2439 502.9454 455.1336 502.9546 455.0831 502.8602 455.469 502.8907 455.3635 502.9191 455.2648 502.6812 455.9036 502.751 455.7456 502.8154 455.6003 502.3327 456.457 502.4656 456.2604 502.5864 456.0816 501.7677 457.0347 501.9772 456.8359 502.1654 456.6575 501.0291 457.4943 501.2946 457.3427 501.7665 457.0733 499.2066 457.8368 499.7285 457.8068 500.1105 457.7849 498.4408 457.6544 498.7227 457.7204 499.1256 457.8147 497.6473 457.2705 497.8449 457.3814 498.0285 457.4844 497.3884 457.0673 497.4672 457.1298 497.6665 457.2878 497.8814 457.4249 498.1085 457.5391 498.2762 457.6235 497.7509 457.3139 497.801 457.352L498.1899 457.8655C498.9071 458.9357 499.9727 461.2057 501.3285 464.0332 502.4406 466.233 503.6869 468.3703 504.9225 470.4027 506.0916 472.474 507.3568 474.4872 508.6558 476.1583 509.629 477.4893 510.7413 478.5983 512.0833 479.3074 513.4383 480.0234 515.4964 480.319 517.0766 479.1565 518.7752 478.0171 518.886 476.3988 519.0478 475.1245 519.2085 473.8583 519.213 472.5742 519.2391 471.3465L519.5463 466.1652C519.5846 464.5685 519.6336 463.2779 519.7603 462.3472 519.8712 461.29 520.0271 461.0828 520.076 461.0347 520.1788 460.9364 519.7032 461.266 519.7205 461.2623L520.2333 461.2872C520.9965 461.3718 521.3999 461.4276 521.7666 461.5502 523.0684 462.0245 525.2143 463.5277 527.4784 465.5725 529.4237 467.1741 531.2213 468.8922 532.8166 470.6457L534.8457 473.3365C536.0209 474.9681 536.8577 476.5058 537.4995 477.8316L538.4196 479.8896 538.5738 480.351C538.5787 480.3704 538.555 480.2102 538.564 480.2836 538.575 480.3718 538.6177 479.416 538.5741 479.7266 538.599 479.5225 539.4813 478.0173 539.1817 478.3661 538.9467 478.6398 540.5543 477.4732 540.1553 477.6477 539.8561 477.7785 541.3492 477.4051 541.0606 477.4251 540.6414 477.4542 542.3033 477.6253 542.0602 477.5461 541.8329 477.472 542.6429 477.8261 542.5397 477.7635 542.0435 477.5055 543.0027 478.1475 542.8896 478.0387 542.7162 477.8719 543.0876 478.2692 543.0752 478.249L542.2631 476.6202 540.7391 473.776C539.9504 472.1431 539.1961 470.4259 538.6205 468.6881 538.2598 467.6202 537.958 466.6339 537.7703 465.6818 537.5495 464.6136 537.4452 463.5391 537.4678 462.5827 537.5286 461.5381 537.9125 460.6293 538.1062 460.3931 538.3839 460.0103 537.7817 460.6338 537.8905 460.5602 538.0341 460.463 537.7018 460.6535 537.7598 460.6402L538.1874 460.5962C538.9044 460.5421 539.325 460.6093 539.6147 460.7601 539.5984 460.7562 539.4398 460.6475 539.6112 460.9217L540.3095 462.2839C540.9401 463.6084 541.4957 465.1247 541.8517 466.7305 542.158 468.2794 542.3137 470.0221 542.3948 471.7994 542.4934 473.2932 542.5166 474.7504 542.5393 476.063 542.5153 477.8365 542.1892 478.7294 542.5249 480.3593 542.6449 480.8978 543.047 481.9171 544.2155 482.3729 545.2274 482.7676 546.0829 482.4612 546.5127 482.2322 547.7185 481.5897 547.6639 481.1871 547.877 480.8201L548.464 479.605C548.8721 478.6864 549.0175 477.8633 549.2229 477.2188 549.5056 476.3018 549.8373 475.4458 550.186 474.8252 550.3865 474.5085 550.6162 474.3206 550.8615 474.2074 551.0551 474.1163 551.8696 473.9908 553.3111 474.2455 554.5826 474.421 556.3717 475.0954 558.4203 475.6174 560.8241 476.2079 563.2778 476.7551 565.8329 475.7905 567.9242 475.0784 568.825 473.2172 569.2835 471.8449 569.8053 470.2162 569.8335 468.5846 569.6587 466.9564 569.2797 463.9937 568.0347 461.3173 566.6049 459.0406 565.6514 457.5361 564.5067 456.4875 563.5886 455.6793 562.0815 454.3038 560.5862 453.3798 559.3307 452.8275 558.5452 452.4724 557.9117 452.2542 557.0042 452.2573L556.8786 452.2547C556.6545 452.2604 556.2568 452.1508 555.3898 452.7115 554.5075 453.2822 553.9716 454.9192 554.1719 455.7564 554.696 457.9467 555.2402 457.4019 555.4273 457.5363L555.9308 457.8783 559.1785 459.6887 562.0643 461.8925 566.023 464.9676C567.2304 466.1315 568.7298 467.5179 570.2243 469.044 571.4948 470.2272 572.6535 471.3695 573.8003 472.5659 575.2835 474.2072 576.7662 476.0076 578.0648 477.8978 579.8901 480.0919 581.2751 481.9848 582.4008 483.9819 584.3902 487.2773 585.5622 491.4652 586.3893 495.5436 586.776 497.0201 586.9923 498.3491 587.2062 499.7685 587.4386 502.7944 587.692 506.1638 588.1109 509.7458L588.899 518.6295C588.8748 518.8844 588.8012 519.2926 588.7514 519.4747 588.7142 519.5969 589.5086 518.2852 589.2231 518.6125 588.9962 518.8726 590.6477 517.7361 590.2189 517.9091 589.8938 518.0404 591.5807 517.7091 591.2429 517.7098 590.7473 517.7109 592.7365 518.1244 592.443 517.9822 592.1663 517.8481 593.1681 518.4988 593.0348 518.3784 592.1007 517.6263 592.567 518.2698 592.2112 517.3764 591.6428 515.9742 590.9343 513.2871 590.1919 509.2517 589.7267 506.6317 589.3093 503.4371 588.8718 499.8197L588.584 495.8931 588.3364 492.2595C588.0345 487.8899 587.9201 483.1648 587.8248 478.2701L587.6669 468.8001C587.5304 466.3366 587.5123 464.5516 587.4896 463.1336 587.4549 461.3168 587.476 460.1069 587.5256 459.6284L587.5377 459.5252C587.5437 459.4952 587.4439 459.8504 587.4804 459.7373 587.5414 459.5479 586.8085 460.9694 587.0561 460.5983 587.3185 460.2052 585.3726 462.0865 585.876 461.7595 585.9556 461.7084 585.1866 462.0938 585.3939 462.0096 585.7204 461.877 583.8574 462.2492 584.2469 462.2435 584.623 462.2379 583.2778 462.0808 583.4283 462.1308 583.6183 462.1944 582.9381 461.9059 583.0116 461.9486 583.1821 462.0477 583.1994 462.1015 583.6972 462.6536L585.7358 465.0967C587.1181 466.7893 588.6562 468.474 590.1654 470.1486 591.6306 471.8378 593.1948 473.7537 595.0297 475.4361 597.683 478.1255 601.6742 480.5746 606.068 479.0625 608.3965 478.2936 609.7135 476.6084 610.7135 475.103 611.7 473.618 612.4461 472.0624 613.1761 470.5672 613.9594 469.1737 614.7773 467.5091 615.5761 465.9193 617.042 462.1314 618.1398 459.206 619.1202 457.8163L619.7268 457.2571C619.9505 457.0743 620.1576 456.8722 620.3457 456.6529 620.5947 456.3627 619.4338 457.2563 619.6 457.1951 619.7285 457.1478 619.5175 457.2116 619.7112 457.2055L620.4262 457.3694C620.8299 457.4587 621.2441 457.4904 621.6566 457.4639 622.3792 457.4173 623.4481 457.5023 624.8647 457.921 626.5461 458.4179 628.312 457.4577 628.809 455.7763 629.1599 454.5888 628.7884 453.3056 627.8573 452.4893 626.3788 451.1931 625.0035 450.1713 623.7011 449.3576 623.3506 449.1385 622.9708 448.9701 622.5731 448.8572 621.7494 448.6234 620.9512 448.4578 620.1871 448.351 618.921 448.0171 616.417 447.7632 613.9626 449.3565 613.7203 449.5137 613.4925 449.6921 613.2816 449.8896 612.5595 450.5658 611.8594 451.3514 611.2241 452.2549 609.0137 455.023 607.7672 458.4937 606.4093 461.648L604.6587 467.0207C604.1328 468.288 603.5813 469.604 603.0993 470.4733L602.5907 471.2537 602.5816 471.2698C602.536 471.3066 603.0065 471.034 602.8635 471.1003 602.8468 471.1074 603.0225 471.1141 602.6187 470.9787 602.1271 470.8138 601.3045 470.3374 600.3856 469.5169 599.2879 468.4294 597.9086 466.6715 596.3943 464.8117 595.0454 463.0894 593.7045 461.3909 592.6555 459.881 591.0625 457.589 590.339 455.3536 587.1588 453.5999 585.671 452.7744 583.3546 452.5078 581.8107 452.9691 580.4268 453.3752 579.2212 454.4485 578.5916 455.4305 576.8929 458.0801 577.1643 460.0519 577.0529 463.0213 577.0025 464.4871 576.951 466.5088 577.0247 468.9736L577.9096 478.8026C578.3383 483.7231 578.7884 488.5836 579.452 493.1484L580.1109 497.0038 581.0598 501.1526C581.6066 504.5894 582.1839 507.8946 582.8555 510.7797 583.8214 515.0491 584.7416 518.0838 585.8935 520.2809 587.1358 522.615 589.5021 523.7481 590.4418 523.8856 591.6258 523.9906 593.1134 523.4807 593.8276 522.4024 594.4989 521.3889 594.4426 520.5506 594.3816 519.9449 594.3477 519.4999 594.279 518.7651 594.1189 517.8817L593.6226 509.2692C593.5648 505.9192 593.6647 502.6396 593.7568 499.3704 593.8894 498.111 594.0394 496.4847 593.9932 494.6818 593.5851 489.8812 592.823 484.7072 590.5371 479.8011 589.1235 476.9882 587.4938 474.5452 585.7718 472.3003 583.5161 469.8665 581.4647 468.0542 579.4258 466.4195 578.1326 465.3183 576.7331 464.1987 575.3436 463.1691 573.1878 461.7232 571.2943 460.6367 569.6044 459.684 568.2152 458.7288 566.7344 457.8045 565.4121 457.001L561.8048 454.9425 559.2009 453.1925 558.5412 452.7875C558.4967 452.7579 559.0922 453.2626 558.8805 453.0608 558.7898 452.9743 559.3823 453.6828 559.2361 453.4745 559.098 453.2776 559.7663 454.8146 559.6558 454.3853 559.5539 453.99 559.5352 456.2643 559.6585 455.778 559.7657 455.355 558.9077 457.1193 559.1275 456.845 559.3131 456.6133 558.4053 457.4911 558.5777 457.3671 558.8633 457.1616 557.701 457.7949 557.8806 457.7316 558.1289 457.6441 557.2417 457.8751 557.3572 457.8592 557.4632 457.8446 557.0848 457.8818 557.1335 457.8797 557.0517 457.889 556.6491 457.8502 556.6867 457.8611L556.9702 457.9741C557.6024 458.2839 558.618 458.9279 559.6816 459.9425 560.3959 460.6491 561.0539 461.3636 561.474 462.1044 562.4989 463.8943 563.2917 465.9894 563.4245 467.5552 563.5377 468.6355 563.4569 469.482 563.3258 469.8877L563.1519 470.3273C563.1433 470.3396 563.3609 470.1281 563.2793 470.1964 563.1906 470.2706 563.8137 469.9219 563.6582 469.9795 563.5071 470.0285 561.9436 469.9753 560.0423 469.4583 558.4389 469.037 556.5449 468.2373 554.3269 467.917 552.0426 467.6765 549.8854 467.7645 548.0205 468.9155 546.6671 469.7654 545.7329 470.9881 545.1491 472.2481 544.6028 473.295 544.2033 474.4994 543.8911 475.6407L543.4011 477.6345 543.1447 478.1896C543.1372 478.2015 543.2859 478.004 543.2294 478.074 543.1818 478.133 543.6207 477.689 543.4839 477.8098 543.3719 477.9088 544.2959 477.3101 544.0242 477.4463 543.8053 477.5559 545.36 477.1415 544.9523 477.1803 544.6338 477.2107 546.3845 477.4139 546.0163 477.2957 545.7391 477.2067 546.9946 477.8434 546.7749 477.6825 546.4525 477.4462 547.6127 478.6716 547.4657 478.4319 547.3254 478.2033 547.7843 479.1882 547.7337 479.0239 547.6559 478.7841 547.7957 479.3077 547.7924 479.2825L547.7835 475.9908C547.8095 474.7441 547.8355 473.1954 547.7791 471.5824 547.6689 469.5891 547.4791 467.589 547.0659 465.6086 546.6949 463.6031 546.0707 461.695 545.3506 460.011 544.8373 458.8151 544.3718 457.1302 542.4973 455.8823 541.2764 454.9544 539.7284 454.5544 538.4171 454.4199 536.8845 454.3408 534.7737 454.3494 533.1501 456.3374 531.7611 458.3354 531.3616 460.4166 531.3741 462.5289 531.3351 463.9086 531.4836 465.4139 531.782 466.8809 532.0764 468.2623 532.4861 469.4986 532.8963 470.6529 533.652 472.7407 534.5688 474.6655 535.4894 476.4377L537.0833 479.3385 537.7434 480.7351C538.0228 481.2973 538.1829 482.1133 539.6167 482.8827 540.4445 483.2522 541.5412 483.5264 542.6953 482.8977 543.859 482.2639 544.2288 481.1234 544.3086 480.4902 544.7037 479.2607 544.2211 478.7347 543.967 477.9491 543.7076 477.1469 543.3484 476.2692 542.9053 475.2947 542.1764 473.7202 541.1912 471.841 539.7966 469.8554L537.3566 466.6999C535.8648 464.6811 534.0506 462.5831 532.1424 460.6706 529.4526 458.2129 526.8959 456.187 524.0336 455.1238 523.017 454.7146 522.0428 454.5452 521.3961 454.4272 519.2515 454.1433 516.8653 454.504 515.2125 456.203 513.8102 457.6072 513.1724 459.5428 512.9752 461.553 512.8735 463.0813 512.9196 464.5471 512.9659 466.0955L513.2163 471.458C513.2491 472.6154 513.2885 473.7626 513.2366 474.5695L513.1437 475.2823C513.1375 475.3039 513.2438 475.0868 513.1934 475.1789 513.135 475.2855 513.7767 474.5522 513.5713 474.7268 513.3932 474.8624 514.7627 474.3448 514.5397 474.342 514.3943 474.3401 514.7379 474.3704 514.7108 474.3597 514.53 474.2886 513.812 473.7904 513.0614 472.7914 512.1114 471.4458 511.0249 469.5843 509.9738 467.5601 509.0202 465.5679 508.0456 463.4499 507.2864 461.4684 506.1019 458.5614 505.2491 456.183 504.2566 454.2689 503.6292 453.0547 503.0081 452.2192 502.5654 451.7234 502.3961 451.5338 502.2078 451.3621 502.0036 451.2108 501.4552 450.8046 500.2159 449.8988 498.2558 450.5837 496.7691 451.1033 496.1095 452.3034 495.8664 452.9579 495.2715 454.5595 495.5321 455.0883 495.5408 455.9684 495.6282 457.0938 495.7681 457.9882 495.9769 458.9749 496.1623 460.1908 496.4745 461.7173 496.7512 463.8897L497.3324 469.2477 497.7417 473.7507 498.2365 478.6092 499.4241 489.474C500.0465 494.6721 500.6557 499.6912 501.3493 504.1485 501.9446 508.0161 502.5389 511.2497 503.0804 513.932 503.5441 516.5011 504.0215 518.5541 504.3592 520.1275 504.7893 522.1767 505.0963 523.6337 505.7089 524.8874 506.2273 526.0797 507.2013 526.9834 507.868 527.3875 509.439 528.3066 511.0248 527.6617 511.7741 527.3487 512.491 527.061 513.1938 526.573 513.857 525.9386 514.3208 525.5249 514.8467 524.9769 515.3584 524.3523 516.334 523.1313 517.4067 521.5752 517.9851 519.5682 518.4213 518.1967 518.586 516.7426 518.6992 515.3193 518.8153 513.5486 518.8374 511.5022 518.5161 509.1204 518.1682 506.6284 517.5936 503.7877 516.6646 500.6802L515.1709 496.0157C514.5121 494.1962 513.8193 492.306 513.0024 490.4064 511.6106 487.1485 510.0605 483.8922 508.2153 480.6863L506.7035 478.067C504.7753 474.7917 502.7491 471.6734 500.6742 468.8164 499.6514 467.3931 498.6053 465.9424 497.4289 464.6047 495.2699 462.2532 493.2153 460.4536 491.4397 459.0253 490.1185 457.9728 488.9384 457.1783 487.9801 456.5516 486.9888 456.0209 486.1945 455.6616 485.5026 455.4015L485.6572 455.3653 486.1773 456.3624C486.1621 456.2877 486.2146 456.8307 486.2118 456.6829 486.2102 456.6041 486.1794 457.0997 486.1953 456.9774 486.2122 456.8474 485.866 457.9226 486.0222 457.58"/>
</g>
</svg>
