<svg width="448" height="658" viewBox="0 0 448 658" fill="none" xmlns="http://www.w3.org/2000/svg">
<path id="stem" d="M172.402 175.454C172.402 175.454 282.198 322.38 281.131 625.196" stroke="#80A692" stroke-width="64.1015" stroke-miterlimit="10" stroke-linecap="round" stroke-linejoin="round"/>
<path id="leaf" d="M254.713 374.579C254.713 374.579 278.355 249.857 322.644 217.588C369.518 183.434 437.254 222.762 409.298 279.53" stroke="#80A692" stroke-width="64.1015" stroke-miterlimit="10" stroke-linecap="round" stroke-linejoin="round"/>
<path id="flower" d="M84.2593 4.70773C71.9614 33.6966 71.0889 68.5861 83.1532 100.353C48.889 99.8683 18.3361 117.989 0 146.921C15.7816 183.244 47.7964 210.388 86.2547 215.17C122.16 219.635 155.039 203.527 175.679 175.451C176.744 175.538 177.816 175.577 178.882 175.637C178.951 175.764 179.005 175.9 179.076 176.027C180.571 175.997 182.053 175.88 183.542 175.777C184.467 175.781 185.387 175.809 186.312 175.778C186.342 175.706 186.373 175.633 186.404 175.561C219.12 172.257 249.48 151.323 265.932 116.295C283.608 78.6597 280.674 34.4894 261.747 0C227.066 0.695858 194.086 21.2355 176.12 57.3525C154.18 22.2513 118.945 3.53129 84.2593 4.70773Z" fill="#ECB3C1"/>
<mask id="mask0_220_105" style="mask-type:luminance" maskUnits="userSpaceOnUse" x="0" y="0" width="278" height="216">
</mask>
</svg>
