<?xml version="1.0" standalone="no"?>
<!DOCTYPE svg PUBLIC "-//W3C//DTD SVG 20010904//EN"
 "http://www.w3.org/TR/2001/REC-SVG-20010904/DTD/svg10.dtd">
<svg version="1.0" xmlns="http://www.w3.org/2000/svg"
 width="1080.000000pt" height="1080.000000pt" viewBox="0 0 1080.000000 1080.000000"
 preserveAspectRatio="xMidYMid meet">

<g transform="translate(0.000000,1080.000000) scale(0.100000,-0.100000)"
fill="#000000" stroke="none">
<path d="M4710 10549 c-445 -51 -1051 -260 -1720 -593 -423 -211 -791 -439
-1077 -667 -140 -112 -396 -359 -492 -475 -258 -312 -308 -602 -150 -871 47
-80 198 -229 299 -296 160 -105 459 -238 542 -240 79 -3 120 92 63 148 -13 14
-31 25 -40 25 -9 0 -73 23 -142 50 -305 121 -503 271 -589 446 -60 120 -59
253 3 393 64 147 244 359 404 476 261 192 674 429 1199 689 651 323 1112 496
1543 577 160 30 443 38 558 15 109 -22 215 -73 275 -133 325 -325 -21 -1225
-719 -1871 -295 -273 -519 -403 -1062 -619 -284 -113 -363 -139 -377 -125 -9
9 -2 50 27 169 57 239 138 532 201 725 51 158 229 621 318 826 24 55 36 99 36
129 0 154 -199 211 -291 83 -63 -88 -334 -1187 -424 -1720 -8 -52 -18 -106
-21 -120 l-5 -26 -92 24 c-122 31 -248 28 -321 -8 -164 -79 -216 -269 -124
-449 60 -118 165 -166 345 -159 l104 4 -5 -26 c-8 -38 -34 -280 -46 -415 -28
-333 -38 -788 -19 -844 19 -54 79 -69 116 -28 20 21 21 37 26 342 6 308 21
539 52 805 25 211 21 198 67 210 38 11 42 9 131 -46 129 -79 238 -158 412
-299 186 -151 394 -306 564 -420 l130 -87 -87 -66 c-482 -361 -855 -798 -1098
-1287 -116 -232 -150 -378 -141 -597 6 -156 27 -239 92 -373 195 -399 648
-667 1245 -736 132 -15 478 -6 615 16 312 50 685 170 1013 326 513 244 1014
645 1422 1139 34 41 66 80 72 85 20 22 -198 -473 -357 -807 -95 -198 -291
-582 -387 -755 -21 -39 -30 -44 -123 -79 -660 -242 -1415 -606 -1820 -876
-349 -233 -566 -453 -676 -683 -61 -129 -79 -205 -79 -335 0 -132 18 -207 82
-340 104 -215 247 -304 487 -302 159 1 289 36 486 131 378 183 788 559 1185
1086 243 323 535 796 725 1174 l56 113 77 35 c148 68 755 264 1252 404 171 49
293 89 304 100 42 40 10 119 -48 119 -53 0 -839 -235 -1268 -379 -115 -38
-208 -68 -208 -66 0 1 30 67 66 146 236 512 475 1130 705 1819 150 450 223
743 273 1095 50 347 71 753 56 1062 -10 194 -13 237 -26 321 l-5 34 93 -7
c231 -17 613 55 1020 194 298 102 681 262 725 303 45 42 25 124 -64 262 -89
138 -218 246 -354 296 -35 13 -65 24 -66 25 -1 0 9 36 22 78 58 189 75 453 41
646 -30 173 -42 182 -227 185 -74 0 -173 -3 -221 -7 l-88 -8 0 28 c0 49 -40
175 -81 257 -48 95 -121 196 -188 259 -60 56 -88 59 -186 22 -182 -68 -386
-199 -468 -299 l-43 -53 -87 87 c-134 135 -382 300 -450 300 -44 0 -62 -14
-135 -109 -83 -107 -152 -223 -203 -340 -21 -47 -41 -85 -46 -84 -4 1 -36 14
-71 28 -95 39 -200 56 -354 56 -151 1 -281 -15 -316 -37 -51 -33 -119 -251
-129 -414 -3 -58 -1 -124 7 -170 7 -41 13 -83 14 -92 1 -14 -23 -26 -109 -56
-142 -49 -275 -119 -295 -154 -19 -35 -3 -131 46 -278 59 -175 148 -336 257
-463 l49 -58 -61 -62 c-74 -75 -104 -118 -146 -211 -46 -101 -69 -204 -69
-318 -1 -94 0 -98 27 -125 l28 -28 277 1 c655 3 1196 91 1502 244 47 23 100
53 118 67 18 14 35 23 37 22 1 -2 8 -56 14 -119 59 -624 -24 -1357 -223 -1975
-39 -121 -58 -161 -131 -280 -520 -845 -1221 -1472 -1990 -1780 -203 -81 -436
-136 -702 -165 -166 -18 -536 -8 -683 18 -452 82 -791 282 -945 557 -98 176
-112 390 -38 600 67 188 266 522 449 750 118 147 380 408 534 531 141 113 253
194 267 194 5 0 79 -39 163 -86 871 -485 1715 -744 2259 -694 378 35 632 187
770 462 77 153 103 267 105 448 1 170 -11 230 -76 360 -80 160 -249 302 -451
380 -188 73 -381 103 -657 103 -561 1 -1161 -158 -1780 -469 l-225 -114 -55
37 c-213 142 -511 367 -708 535 -64 55 -156 129 -204 166 -48 36 -86 67 -85
68 1 0 90 38 197 84 358 152 535 249 750 411 594 448 1067 1163 1175 1778 47
270 23 489 -78 686 -61 120 -189 245 -317 308 -155 76 -315 108 -535 106 -66
-1 -154 -5 -195 -10z m3150 -619 c36 -27 109 -93 161 -147 145 -150 242 -308
312 -509 61 -175 72 -245 72 -469 0 -215 -11 -292 -61 -445 -51 -155 -195
-410 -235 -418 -26 -5 -191 111 -285 200 -272 259 -434 640 -434 1026 0 80 7
178 16 233 33 198 133 438 243 584 l41 54 53 -30 c28 -17 81 -53 117 -79z
m990 48 c80 -100 150 -267 150 -361 0 -32 -4 -37 -37 -48 -111 -35 -281 -128
-391 -212 -29 -22 -54 -38 -56 -36 -1 2 -13 31 -26 64 -30 77 -83 185 -127
258 l-35 57 25 43 c32 55 97 115 189 174 76 49 236 125 253 120 6 -2 30 -29
55 -59z m-1748 -386 c91 -26 150 -65 143 -95 -19 -87 -27 -162 -32 -294 -3
-84 -10 -153 -14 -153 -4 0 -45 9 -91 21 -65 17 -125 22 -280 26 l-197 5 -10
47 c-26 121 -19 245 20 378 l22 72 41 5 c22 3 52 8 66 10 57 10 267 -4 332
-22z m2432 -144 c4 -13 10 -86 13 -164 7 -158 -10 -288 -54 -429 -32 -102
-109 -257 -169 -343 -58 -82 -189 -218 -266 -278 -128 -99 -300 -184 -454
-223 -77 -20 -224 -44 -230 -38 -2 1 23 55 55 118 149 297 201 633 150 964
l-11 70 48 43 c70 62 199 147 286 186 172 80 319 113 514 115 108 1 112 0 118
-21z m-2489 -551 c39 -9 97 -24 129 -34 l60 -18 28 -100 c80 -278 199 -490
383 -683 51 -53 120 -117 154 -142 33 -25 60 -48 61 -51 0 -8 -128 -43 -209
-59 -300 -57 -643 16 -908 193 -251 167 -432 417 -513 708 l-19 69 39 20 c94
48 238 88 405 114 62 9 322 -2 390 -17z m2655 -370 c74 -35 180 -134 224 -210
16 -26 27 -49 25 -51 -2 -2 -75 -33 -161 -70 -190 -80 -459 -180 -623 -229
-134 -41 -375 -100 -381 -94 -3 2 17 12 43 22 268 101 545 336 700 595 46 77
49 80 78 74 17 -3 59 -20 95 -37z m-3086 -651 c218 -156 479 -244 786 -264
l115 -8 -90 -17 c-225 -44 -523 -71 -907 -83 l-218 -7 0 30 c0 44 27 141 60
211 30 64 141 192 166 192 7 0 46 -24 88 -54z m441 -1181 c364 -55 585 -209
634 -443 38 -183 -29 -432 -155 -572 -277 -307 -977 -233 -1884 197 -205 98
-620 327 -620 343 0 11 368 185 490 233 314 122 664 212 960 246 130 15 465
12 575 -4z m-460 -3956 c-30 -57 -237 -383 -323 -508 -232 -337 -431 -581
-666 -817 -235 -235 -413 -373 -614 -477 -172 -89 -344 -127 -424 -94 -74 31
-148 186 -148 311 1 370 514 836 1404 1275 233 114 741 338 774 340 9 1 9 -7
-3 -30z"/>
</g>
</svg>
